<?xml version="1.0" encoding="utf-8"?>
<!-- Generator: Adobe Illustrator 18.1.1, SVG Export Plug-In . SVG Version: 6.00 Build 0)  -->
<svg version="1.1" xmlns="http://www.w3.org/2000/svg" xmlns:xlink="http://www.w3.org/1999/xlink" x="0px" y="0px"
	 viewBox="0 0 1024 321" enable-background="new 0 0 1024 321" xml:space="preserve">
<symbol  id="Deleted_Symbol" viewBox="-30.1 -12.2 60.2 24.4">
	<line fill="none" stroke="#000000" stroke-width="0.3" x1="30" y1="6.2" x2="28" y2="4.7"/>
	<line fill="none" stroke="#000000" stroke-width="0.3" x1="16.8" y1="-4.3" x2="12.6" y2="-3.5"/>
	<line fill="none" stroke="#000000" stroke-width="0.3" x1="26.3" y1="1.1" x2="23.3" y2="1.1"/>
	<line fill="none" stroke="#000000" stroke-width="0.3" x1="21.1" y1="-7.4" x2="22.2" y2="-4.4"/>
	<line fill="none" stroke="#000000" stroke-width="0.3" x1="4.6" y1="9.6" x2="2.9" y2="12.1"/>
	<line fill="none" stroke="#000000" stroke-width="0.3" x1="-9.9" y1="-10.8" x2="-8" y2="-8.2"/>
	<line fill="none" stroke="#000000" stroke-width="0.3" x1="18.8" y1="5.8" x2="16.8" y2="2.5"/>
	<line fill="none" stroke="#000000" stroke-width="0.3" x1="-30" y1="-1.1" x2="-27.7" y2="1.4"/>
	<line fill="none" stroke="#000000" stroke-width="0.3" x1="-20.5" y1="-2.3" x2="-16.5" y2="0.2"/>
	<line fill="none" stroke="#000000" stroke-width="0.3" x1="-21.8" y1="-6" x2="-23.8" y2="-4.7"/>
	<line fill="none" stroke="#000000" stroke-width="0.3" x1="-7.1" y1="4.8" x2="-9.9" y2="7.1"/>
	<line fill="none" stroke="#000000" stroke-width="0.3" x1="5.1" y1="-4.9" x2="3.1" y2="-3.6"/>
	<line fill="none" stroke="#000000" stroke-width="0.3" x1="-6.3" y1="-5.5" x2="-3.3" y2="-5.6"/>
	<line fill="none" stroke="#000000" stroke-width="0.3" x1="-4.1" y1="-0.3" x2="-1.7" y2="-2.1"/>
	<line fill="none" stroke="#000000" stroke-width="0.3" x1="3.1" y1="3.7" x2="4.2" y2="0.7"/>
	<line fill="none" stroke="#000000" stroke-width="0.3" x1="-2.4" y1="8.5" x2="-5.7" y2="9.5"/>
	<line fill="none" stroke="#000000" stroke-width="0.3" x1="12" y1="2.1" x2="9.2" y2="3.8"/>
	<line fill="none" stroke="#000000" stroke-width="0.3" x1="11.8" y1="7.5" x2="9.8" y2="6"/>
	<line fill="none" stroke="#000000" stroke-width="0.3" x1="-20.2" y1="6.7" x2="-19.7" y2="3.5"/>
	<line fill="none" stroke="#000000" stroke-width="0.3" x1="-12.2" y1="0.2" x2="-8.7" y2="1"/>
	<line fill="none" stroke="#000000" stroke-width="0.3" x1="0.3" y1="-12.2" x2="0.5" y2="-9.2"/>
	<line fill="none" stroke="#000000" stroke-width="0.3" x1="-15.7" y1="-7.6" x2="-17.1" y2="-5.6"/>
</symbol>
<g id="dusk" display="none">
	<linearGradient id="SVGID_1_" gradientUnits="userSpaceOnUse" x1="512" y1="-2.298657e-008" x2="512" y2="321">
		<stop  offset="6.796558e-002" style="stop-color:#4A5175"/>
		<stop  offset="0.1162" style="stop-color:#505175;stop-opacity:0.9485"/>
		<stop  offset="0.187" style="stop-color:#615374;stop-opacity:0.8728"/>
		<stop  offset="0.2718" style="stop-color:#7A5574;stop-opacity:0.7823"/>
		<stop  offset="0.3674" style="stop-color:#9D5772;stop-opacity:0.6802"/>
		<stop  offset="0.4706" style="stop-color:#CA596F;stop-opacity:0.57"/>
		<stop  offset="0.5361" style="stop-color:#F05B6F;stop-opacity:0.5"/>
		<stop  offset="0.5582" style="stop-color:#AE534F;stop-opacity:0.4821"/>
		<stop  offset="0.5981" style="stop-color:#4D3714;stop-opacity:0.45"/>
	</linearGradient>
	<rect display="inline" fill="url(#SVGID_1_)" width="1024" height="321"/>
</g>
<g id="Stars">
	<g opacity="0.45">
		<g>
			<path fill="none" stroke="#2A2A3D" stroke-miterlimit="10" d="M109,45.9"/>
		</g>
	</g>
	<g opacity="0.45">
		<g>
			<path fill="#D7EAC4" d="M46,49.3c3.2,0,3.2-5,0-5C42.8,44.3,42.8,49.3,46,49.3L46,49.3z"/>
		</g>
	</g>
	<g opacity="0.45">
		<g>
			<path fill="#D7EAC4" d="M713,80.2c1.6,0,1.6-2.5,0-2.5C711.4,77.7,711.4,80.2,713,80.2L713,80.2z"/>
		</g>
	</g>
	<g opacity="0.45">
		<g>
			<path fill="#D7EAC4" d="M770,41.5c1.6,0,1.6-2.5,0-2.5C768.4,39,768.4,41.5,770,41.5L770,41.5z"/>
		</g>
	</g>
	<g opacity="0.45">
		<g>
			<path fill="#D7EAC4" d="M701,20.7c1.6,0,1.6-2.5,0-2.5C699.4,18.2,699.4,20.7,701,20.7L701,20.7z"/>
		</g>
	</g>
	<g opacity="0.45">
		<g>
			<path fill="#D7EAC4" d="M711,12.1c1.6,0,1.6-2.5,0-2.5C709.4,9.6,709.4,12.1,711,12.1L711,12.1z"/>
		</g>
	</g>
	<g opacity="0.45">
		<g>
			<path fill="#D7EAC4" d="M725,12.1c1.6,0,1.6-2.5,0-2.5C723.4,9.6,723.4,12.1,725,12.1L725,12.1z"/>
		</g>
	</g>
	<g opacity="0.45">
		<g>
			<path fill="#D7EAC4" d="M638,1.8c1.6,0,1.6-2.5,0-2.5C636.4-0.8,636.4,1.8,638,1.8L638,1.8z"/>
		</g>
	</g>
	<g opacity="0.45">
		<g>
			<path fill="#D7EAC4" d="M257,33.9c1.6,0,1.6-2.5,0-2.5C255.4,31.4,255.4,33.9,257,33.9L257,33.9z"/>
		</g>
	</g>
	<g opacity="0.45">
		<g>
			<path fill="#D7EAC4" d="M371,29.2c1.6,0,1.6-2.5,0-2.5C369.4,26.7,369.4,29.2,371,29.2L371,29.2z"/>
		</g>
	</g>
	<g opacity="0.45">
		<g>
			<path fill="#D7EAC4" d="M190,73.6c1.6,0,1.6-2.5,0-2.5C188.4,71.1,188.4,73.6,190,73.6L190,73.6z"/>
		</g>
	</g>
	<g opacity="0.45">
		<g>
			<path fill="#D7EAC4" d="M548,12.1c1.6,0,1.6-2.5,0-2.5C546.4,9.6,546.4,12.1,548,12.1L548,12.1z"/>
		</g>
	</g>
	<g opacity="0.45">
		<g>
			<path fill="#D7EAC4" d="M831,92.5c1.6,0,1.6-2.5,0-2.5C829.4,90,829.4,92.5,831,92.5L831,92.5z"/>
		</g>
	</g>
	<g opacity="0.45">
		<g>
			<path fill="#D7EAC4" d="M120,16.9c1.6,0,1.6-2.5,0-2.5C118.4,14.4,118.4,16.9,120,16.9L120,16.9z"/>
		</g>
	</g>
	<g opacity="0.45">
		<g>
			<path fill="#D7EAC4" d="M342,8.4c1.6,0,1.6-2.5,0-2.5C340.4,5.9,340.4,8.4,342,8.4L342,8.4z"/>
		</g>
	</g>
	<g opacity="0.45">
		<g>
			<path fill="#B6C6A5" d="M86,109.5c1.6,0,1.6-2.5,0-2.5C84.4,107,84.4,109.5,86,109.5L86,109.5z"/>
		</g>
	</g>
	<g opacity="0.45">
		<g>
			<path fill="#B6C6A5" d="M174,99.1c1.6,0,1.6-2.5,0-2.5C172.4,96.6,172.4,99.1,174,99.1L174,99.1z"/>
		</g>
	</g>
	<g opacity="0.45">
		<g>
			<path fill="#B6C6A5" d="M661,102c1.6,0,1.6-2.5,0-2.5C659.4,99.5,659.4,102,661,102L661,102z"/>
		</g>
	</g>
	<g opacity="0.45">
		<g>
			<path fill="#B6C6A5" d="M735,118c1.6,0,1.6-2.5,0-2.5C733.4,115.5,733.4,118,735,118L735,118z"/>
		</g>
	</g>
	<g opacity="0.45">
		<g>
			<path fill="#B6C6A5" d="M943,118c1.6,0,1.6-2.5,0-2.5C941.4,115.5,941.4,118,943,118L943,118z"/>
		</g>
	</g>
	<g opacity="0.45">
		<g>
			<path fill="#B6C6A5" d="M995.1,44.9c0.3,0.3,0.7,0.6,1,0.9c1.2,1.1,2.9-0.7,1.8-1.8c-0.3-0.3-0.7-0.6-1-0.9
				C995.7,42,993.9,43.8,995.1,44.9L995.1,44.9z"/>
		</g>
	</g>
	<g opacity="0.45">
		<g>
			<path fill="#B6C6A5" d="M1015,115.2c1.6,0,1.6-2.5,0-2.5C1013.4,112.7,1013.4,115.2,1015,115.2L1015,115.2z"/>
		</g>
	</g>
	<g opacity="0.45">
		<g>
			<path fill="#B6C6A5" d="M891,25.4c1.6,0,1.6-2.5,0-2.5C889.4,22.9,889.4,25.4,891,25.4L891,25.4z"/>
		</g>
	</g>
	<g opacity="0.45">
		<g>
			<path fill="#B6C6A5" d="M963,18.8c1.6,0,1.6-2.5,0-2.5C961.4,16.3,961.4,18.8,963,18.8L963,18.8z"/>
		</g>
	</g>
	<g opacity="0.45">
		<g>
			<path fill="#B6C6A5" d="M858,122.8c1.6,0,1.6-2.5,0-2.5C856.4,120.3,856.4,122.8,858,122.8L858,122.8z"/>
		</g>
	</g>
	<g opacity="0.45">
		<g>
			<path fill="#B6C6A5" d="M101,55.6c1.6,0,1.6-2.5,0-2.5C99.4,53.1,99.4,55.6,101,55.6L101,55.6z"/>
		</g>
	</g>
	<g opacity="0.45">
		<g>
			<path fill="#B6C6A5" d="M27,110.5c1.6,0,1.6-2.5,0-2.5C25.4,108,25.4,110.5,27,110.5L27,110.5z"/>
		</g>
	</g>
	<g opacity="0.45">
		<g>
			<path fill="#B6C6A5" d="M301,95.3c1.6,0,1.6-2.5,0-2.5C299.4,92.8,299.4,95.3,301,95.3L301,95.3z"/>
		</g>
	</g>
	<g opacity="0.45">
		<g>
			<path fill="#B6C6A5" d="M426,71.7c1.6,0,1.6-2.5,0-2.5C424.4,69.2,424.4,71.7,426,71.7L426,71.7z"/>
		</g>
	</g>
	<g opacity="0.45">
		<g>
			<path fill="#B6C6A5" d="M336,38.6c1.6,0,1.6-2.5,0-2.5C334.4,36.1,334.4,38.6,336,38.6L336,38.6z"/>
		</g>
	</g>
	<g opacity="0.45">
		<g>
			<path fill="#B6C6A5" d="M199,33.9c1.6,0,1.6-2.5,0-2.5C197.4,31.4,197.4,33.9,199,33.9L199,33.9z"/>
		</g>
	</g>
	<g opacity="0.45">
		<g>
			<path fill="#B6C6A5" d="M467,25.4c1.6,0,1.6-2.5,0-2.5C465.4,22.9,465.4,25.4,467,25.4L467,25.4z"/>
		</g>
	</g>
	<g opacity="0.45">
		<g>
			<path fill="#B6C6A5" d="M421,11.2c1.6,0,1.6-2.5,0-2.5C419.4,8.7,419.4,11.2,421,11.2L421,11.2z"/>
		</g>
	</g>
	<g opacity="0.45">
		<g>
			<path fill="#B6C6A5" d="M622,46.2c1.6,0,1.6-2.5,0-2.5C620.4,43.7,620.4,46.2,622,46.2L622,46.2z"/>
		</g>
	</g>
	<g opacity="0.45">
		<g>
			<path fill="#B6C6A5" d="M837,12.1c1.6,0,1.6-2.5,0-2.5C835.4,9.6,835.4,12.1,837,12.1L837,12.1z"/>
		</g>
	</g>
</g>
<g id="sceneryR">
	<g id="Layer_7_copy">
		<path fill="#697278" d="M1051,185.3l-26.7-5.5l-10.1-4.1l-8.3-0.8l-21.2,1l-17-0.3l-36.6,1.3l-4.4,2.1l-15.2-0.5
			c0,0-8.5,1.3-11.4,1.3s-13.4,0.5-19.9,0.8c-6.5,0.3-30.7-0.3-30.7-0.3s-20.7-1-21.5-0.5c-0.8,0.5-93.8,10.5-94.6,10.5
			c-0.8,0,4.4,5.2,4.4,5.2l11.3,5.2l56.1,1.4l14.5-0.8l27,1.8l54.2-1.3l7.5-1.1l80.4-2.3l57.7,1.2l1.6-13.2"/>
	</g>
	<g id="Layer_5_copy">
		<path fill="#847F7B" d="M769.1,219.7c0.8,1.7-10.9,8.8-11,10.5l274.7,0.8c-2.1-6.9,1.6-14.2-0.6-21.1l-68.3,4.7l-62.5-1.2l-50,0.3
			l-31.4-2.1l-62.2-0.8C758.4,215.1,767.3,215.8,769.1,219.7z"/>
	</g>
	<path fill="#596476" d="M1028.9,160.7c0.1-7.9-0.6-16-0.1-23.9l-3.6,0.2l-9.1-1.7l-7.3,0.8l-6.1-2.6l-24.9,2.7L944,147.8l-16.3-0.7
		l-11.5,4l-6,1l-16.7,5.2l-21.2,1.5l-21.6,3.3l-15.2-3.8l-7.9,0l-9.4,3.3l-9.3,1.7l-9,0.8l-13.5,3.9l-68.4,14.8l19.2,8.4l79.6-9.6
		l70,2.5l15.2-4.2l51.3-0.3l57.5,2.8l19,0.7C1027.5,175.8,1028.8,167.8,1028.9,160.7z"/>
	<g>
		<path fill="#8C7C93" d="M945.1,201c3.1-0.2,5.8,0.5,2.5,0.8c-2.2,0.2-4.1,0.5-6.2,0.7c-1.3,0.1-5.6,0.2-6.2,0.5
			c-0.4,0.2-0.3,0.5,0,0.9c0.2,0,0.5-0.1,0.9-0.1c4.4-0.3,8.9-0.8,13.8-1.2c3.3-0.3,7.3-0.9,11-1c4.1-0.2,3.3,0.9-0.8,1.1
			c-2.4,0.1-8.5,0.9-10.6,1.1c-4.2,0.4-8.2,0.9-12.1,1.3c-0.3,0-0.5,0-0.7,0c0.9,0.4,1.4,0.9,1.7,1.3c0.4,0.9,0.4,1.9,4.6,1.3
			c2.8-0.4,5.3-1,8.1-1.4c4-0.6,5.5,0.6,1.4,1.4c-5.2,0.9-10.7,2.4-15.4,2.1c-2.1-0.2-3.3-0.8-3.7-1.5c-0.3-0.5-0.2-1.1-0.5-1.6
			c-0.4-0.7-0.7-0.6-2.6-0.4c-0.3,0-0.6,0-0.8,0c-0.2,0-0.5,0.1-0.8,0.1c-1.5,0.1-3,0.1-4.4,0.3c-1.4,0.2-2.7,0.5-4.1,0.5
			c-2.9,0-2.9-2-0.1-2c1.3,0,2.5-0.2,3.8-0.3c1.4-0.1,2.8-0.1,4.2-0.2c0.3,0,0.5,0,0.8,0c0.2,0,0.4-0.1,0.7-0.1
			c0.5,0,0.9-0.1,1.4-0.1c-0.7-0.9-1.2-1.8,0-2.4c0.9-0.5,2.9-0.5,4.9-0.5C939,201.5,941.8,201.2,945.1,201z"/>
	</g>
	<path fill="#38A548" d="M928.1,185c0-2.2-3.4-2.2-3.4,0c0,1.5-0.4,3-0.5,4.5c-0.1,1,0.5,3.8-0.2,4.5c-0.5,0.5-1.3,0.6-2.1,0.6
		c0.1-0.2,0.1-0.4,0.1-0.7c0-3,0.3-6.2-0.1-9.2c-0.3-2,0-4.5-1.2-6.2c-1.3-1.8-4.2-0.1-3,1.7c0.8,1.1,0.8,4.6,0.9,5.9
		c0.2,2.5,0,5.1,0,7.7c0,0.2,0,0.3,0.1,0.5c-1-0.4-2.2-0.4-3.2-0.4c-1.9,0.1-3.9,0.4-3.9-2c0-1.6,0.4-3.1,0.4-4.7
		c0-2.2-3.4-2.2-3.4,0c0,2.8-1.3,6,0.6,8.4c0.9,1.2,2.3,1.7,3.8,1.8c1.1,0.1,2.1-0.1,3.2-0.1c1.4,0,1.3,0.3,1.3,1.6
		c0,0.2,0,0.4,0.1,0.6c0,0.2-0.1,0.3-0.1,0.5c0,1,0.1,2.1-0.1,3.1c-0.2,1-0.5,2-0.4,3c0.2,2.2,3.6,2.2,3.4,0c-0.1-1,0.3-2,0.5-3
		c0.1-1.1,0.1-2.1,0.1-3.2c0-0.2,0-0.4-0.1-0.6c0.1-0.2,0.1-0.3,0.1-0.5c0-0.3,0-0.7,0-1c2,0,4.1-0.1,5.5-1.5
		c1.2-1.1,1.2-2.7,1.2-4.3C927.5,189.7,928.1,187.4,928.1,185z"/>
</g>
<g id="sceneryL">
	<polygon id="mtns" fill="#596476" points="-3.2,154 13.4,151.9 27.7,148 37.3,147.2 47.1,145.5 57.1,142.2 65.4,142.2 81.5,146 
		104.3,142.7 126.7,141.2 144.4,136 150.8,135 162.9,131 180.1,131.7 215.9,120.3 242.1,117.5 248.6,120.1 256.3,119.3 265.9,121 
		281,120.1 295.6,122.7 318,116.5 337.2,121.5 363.2,120.9 360.5,168.5 300.8,168 250.6,166.3 189.8,163.5 135.6,163.8 119.5,168 
		45.7,168.7 -4.8,167.3 	"/>
	<path fill="#697278" d="M84.4,168l31-3.5l17.1-2.9l14.8-1.4l12.5-1.1l14.1-1.3l38.4,1.3l4.6,2.1l16-0.5c0,0,8.9,1.3,11.9,1.3
		s14.1,0.5,20.8,0.8c6.8,0.3,32.2-0.3,32.2-0.3s21.4,1,22.2,1.5s38.2,0.4,39,0.4s0.7,3.3,0.7,3.3l-0.7,6.7l-2.1,11.3l-29.6,1.3
		l-27.3,0.3l-53.1-0.4l-17-3.7L84.3,170.4C84.4,168,84.4,168,84.4,168"/>
	<g id="houses">
		<polygon id="base" fill="#C9C99B" points="0,192.5 19.1,192.6 38.5,192.7 46.5,192.9 48.3,196.8 100.2,197.2 103.3,200.3 
			159.2,200.3 159.4,198.7 192.5,198.5 235.6,198.8 235.6,185.9 229,178.8 220.7,184.7 186,185 162,170.7 152.2,175.7 160.6,181.6 
			160.2,181.9 136.7,181.5 128,174.3 120.4,182.5 105.4,182.2 100.3,176.7 83.2,176.5 75.3,170.3 66.2,176 47.5,175 47.2,171.2 
			29.2,170.8 23.5,166 16.7,171.2 0,171.3 		"/>
		<polygon fill="#595B61" points="216.7,178.7 202.8,170.8 162,170.7 186,186.3 220.7,186 229,178.7 		"/>
		<g>
			<line fill="#757A7F" x1="104.3" y1="181.7" x2="104.3" y2="199.9"/>
			<g>
				<g>
					<g>
						<circle cx="104.9" cy="182" r="0.1"/>
						<path fill="#5481C1" d="M104.5,183.5c0-0.1,0-0.1,0.1-0.1c0.1,0,0.1,0,0.1,0.1H104.5z"/>
						<path fill="#5481C1" d="M103.9,183.5c0-0.1,0-0.1,0.1-0.1c0.1,0,0.1,0,0.1,0.1H103.9z"/>
						<circle fill="#5481C1" cx="104.9" cy="182" r="0.1"/>
						<circle fill="#7F904C" cx="104.9" cy="182.6" r="0.1"/>
						<circle fill="#5481C1" cx="104.9" cy="183.2" r="0.1"/>
						<circle fill="#7F904C" cx="104" cy="182.3" r="0.1"/>
						<circle fill="#7F904C" cx="104" cy="182.9" r="0.1"/>
						<circle fill="#7F904C" cx="104.6" cy="182.3" r="0.1"/>
						<circle fill="#7F904C" cx="104.6" cy="182.9" r="0.1"/>
						<circle fill="#7F904C" cx="104.3" cy="182" r="0.1"/>
						<circle fill="#5481C1" cx="104.3" cy="182.6" r="0.1"/>
						<circle fill="#7F904C" cx="104.3" cy="183.2" r="0.1"/>
						<circle fill="#5481C1" cx="103.7" cy="182" r="0.1"/>
						<circle fill="#7F904C" cx="103.7" cy="182.6" r="0.1"/>
						<circle fill="#5481C1" cx="103.7" cy="183.2" r="0.1"/>
						<path fill="#5481C1" d="M104.5,181.7c0,0.1,0,0.1,0.1,0.1c0.1,0,0.1,0,0.1-0.1H104.5z"/>
						<path fill="#5481C1" d="M103.9,181.7c0,0.1,0,0.1,0.1,0.1c0.1,0,0.1,0,0.1-0.1H103.9z"/>
					</g>
					<g>
						<circle cx="104.9" cy="183.8" r="0.1"/>
						<path fill="#5481C1" d="M104.5,185.3c0-0.1,0-0.1,0.1-0.1c0.1,0,0.1,0,0.1,0.1H104.5z"/>
						<path fill="#5481C1" d="M103.9,185.3c0-0.1,0-0.1,0.1-0.1c0.1,0,0.1,0,0.1,0.1H103.9z"/>
						<circle fill="#5481C1" cx="104.9" cy="183.8" r="0.1"/>
						<circle fill="#7F904C" cx="104.9" cy="184.4" r="0.1"/>
						<circle fill="#5481C1" cx="104.9" cy="185" r="0.1"/>
						<circle fill="#7F904C" cx="104" cy="184.1" r="0.1"/>
						<circle fill="#7F904C" cx="104" cy="184.7" r="0.1"/>
						<circle fill="#7F904C" cx="104.6" cy="184.1" r="0.1"/>
						<circle fill="#7F904C" cx="104.6" cy="184.7" r="0.1"/>
						<circle fill="#7F904C" cx="104.3" cy="183.8" r="0.1"/>
						<circle fill="#5481C1" cx="104.3" cy="184.4" r="0.1"/>
						<circle fill="#7F904C" cx="104.3" cy="185" r="0.1"/>
						<circle fill="#5481C1" cx="103.7" cy="183.8" r="0.1"/>
						<circle fill="#7F904C" cx="103.7" cy="184.4" r="0.1"/>
						<circle fill="#5481C1" cx="103.7" cy="185" r="0.1"/>
						<path fill="#5481C1" d="M104.5,183.5c0,0.1,0,0.1,0.1,0.1c0.1,0,0.1,0,0.1-0.1H104.5z"/>
						<path fill="#5481C1" d="M103.9,183.5c0,0.1,0,0.1,0.1,0.1c0.1,0,0.1,0,0.1-0.1H103.9z"/>
					</g>
					<g>
						<circle cx="104.9" cy="185.6" r="0.1"/>
						<path fill="#5481C1" d="M104.5,187.2c0-0.1,0-0.1,0.1-0.1c0.1,0,0.1,0,0.1,0.1H104.5z"/>
						<path fill="#5481C1" d="M103.9,187.2c0-0.1,0-0.1,0.1-0.1c0.1,0,0.1,0,0.1,0.1H103.9z"/>
						<circle fill="#5481C1" cx="104.9" cy="185.6" r="0.1"/>
						<circle fill="#7F904C" cx="104.9" cy="186.2" r="0.1"/>
						<circle fill="#5481C1" cx="104.9" cy="186.9" r="0.1"/>
						<circle fill="#7F904C" cx="104" cy="185.9" r="0.1"/>
						<circle fill="#7F904C" cx="104" cy="186.6" r="0.1"/>
						<circle fill="#7F904C" cx="104.6" cy="185.9" r="0.1"/>
						<circle fill="#7F904C" cx="104.6" cy="186.6" r="0.1"/>
						<circle fill="#7F904C" cx="104.3" cy="185.6" r="0.1"/>
						<circle fill="#5481C1" cx="104.3" cy="186.2" r="0.1"/>
						<circle fill="#7F904C" cx="104.3" cy="186.9" r="0.1"/>
						<circle fill="#5481C1" cx="103.7" cy="185.6" r="0.1"/>
						<circle fill="#7F904C" cx="103.7" cy="186.2" r="0.1"/>
						<circle fill="#5481C1" cx="103.7" cy="186.9" r="0.1"/>
						<path fill="#5481C1" d="M104.5,185.3c0,0.1,0,0.1,0.1,0.1c0.1,0,0.1,0,0.1-0.1H104.5z"/>
						<path fill="#5481C1" d="M103.9,185.3c0,0.1,0,0.1,0.1,0.1c0.1,0,0.1,0,0.1-0.1H103.9z"/>
					</g>
					<g>
						<circle cx="104.9" cy="187.5" r="0.1"/>
						<path fill="#5481C1" d="M104.5,189c0-0.1,0-0.1,0.1-0.1c0.1,0,0.1,0,0.1,0.1H104.5z"/>
						<path fill="#5481C1" d="M103.9,189c0-0.1,0-0.1,0.1-0.1c0.1,0,0.1,0,0.1,0.1H103.9z"/>
						<circle fill="#5481C1" cx="104.9" cy="187.5" r="0.1"/>
						<circle fill="#7F904C" cx="104.9" cy="188.1" r="0.1"/>
						<circle fill="#5481C1" cx="104.9" cy="188.7" r="0.1"/>
						<circle fill="#7F904C" cx="104" cy="187.8" r="0.1"/>
						<circle fill="#7F904C" cx="104" cy="188.4" r="0.1"/>
						<circle fill="#7F904C" cx="104.6" cy="187.8" r="0.1"/>
						<circle fill="#7F904C" cx="104.6" cy="188.4" r="0.1"/>
						<circle fill="#7F904C" cx="104.3" cy="187.5" r="0.1"/>
						<circle fill="#5481C1" cx="104.3" cy="188.1" r="0.1"/>
						<circle fill="#7F904C" cx="104.3" cy="188.7" r="0.1"/>
						<circle fill="#5481C1" cx="103.7" cy="187.5" r="0.1"/>
						<circle fill="#7F904C" cx="103.7" cy="188.1" r="0.1"/>
						<circle fill="#5481C1" cx="103.7" cy="188.7" r="0.1"/>
						<path fill="#5481C1" d="M104.5,187.2c0,0.1,0,0.1,0.1,0.1c0.1,0,0.1,0,0.1-0.1H104.5z"/>
						<path fill="#5481C1" d="M103.9,187.2c0,0.1,0,0.1,0.1,0.1c0.1,0,0.1,0,0.1-0.1H103.9z"/>
					</g>
					<g>
						<circle cx="104.9" cy="189.3" r="0.1"/>
						<path fill="#5481C1" d="M104.5,190.8c0-0.1,0-0.1,0.1-0.1c0.1,0,0.1,0,0.1,0.1H104.5z"/>
						<path fill="#5481C1" d="M103.9,190.8c0-0.1,0-0.1,0.1-0.1c0.1,0,0.1,0,0.1,0.1H103.9z"/>
						<circle fill="#5481C1" cx="104.9" cy="189.3" r="0.1"/>
						<circle fill="#7F904C" cx="104.9" cy="189.9" r="0.1"/>
						<circle fill="#5481C1" cx="104.9" cy="190.5" r="0.1"/>
						<circle fill="#7F904C" cx="104" cy="189.6" r="0.1"/>
						<circle fill="#7F904C" cx="104" cy="190.2" r="0.1"/>
						<circle fill="#7F904C" cx="104.6" cy="189.6" r="0.1"/>
						<circle fill="#7F904C" cx="104.6" cy="190.2" r="0.1"/>
						<circle fill="#7F904C" cx="104.3" cy="189.3" r="0.1"/>
						<circle fill="#5481C1" cx="104.3" cy="189.9" r="0.1"/>
						<circle fill="#7F904C" cx="104.3" cy="190.5" r="0.1"/>
						<circle fill="#5481C1" cx="103.7" cy="189.3" r="0.1"/>
						<circle fill="#7F904C" cx="103.7" cy="189.9" r="0.1"/>
						<circle fill="#5481C1" cx="103.7" cy="190.5" r="0.1"/>
						<path fill="#5481C1" d="M104.5,189c0,0.1,0,0.1,0.1,0.1c0.1,0,0.1,0,0.1-0.1H104.5z"/>
						<path fill="#5481C1" d="M103.9,189c0,0.1,0,0.1,0.1,0.1c0.1,0,0.1,0,0.1-0.1H103.9z"/>
					</g>
					<g>
						<circle cx="104.9" cy="191.1" r="0.1"/>
						<path fill="#5481C1" d="M104.5,192.6c0-0.1,0-0.1,0.1-0.1c0.1,0,0.1,0,0.1,0.1H104.5z"/>
						<path fill="#5481C1" d="M103.9,192.6c0-0.1,0-0.1,0.1-0.1c0.1,0,0.1,0,0.1,0.1H103.9z"/>
						<circle fill="#5481C1" cx="104.9" cy="191.1" r="0.1"/>
						<circle fill="#7F904C" cx="104.9" cy="191.7" r="0.1"/>
						<circle fill="#5481C1" cx="104.9" cy="192.3" r="0.1"/>
						<circle fill="#7F904C" cx="104" cy="191.4" r="0.1"/>
						<circle fill="#7F904C" cx="104" cy="192" r="0.1"/>
						<circle fill="#7F904C" cx="104.6" cy="191.4" r="0.1"/>
						<circle fill="#7F904C" cx="104.6" cy="192" r="0.1"/>
						<circle fill="#7F904C" cx="104.3" cy="191.1" r="0.1"/>
						<circle fill="#5481C1" cx="104.3" cy="191.7" r="0.1"/>
						<circle fill="#7F904C" cx="104.3" cy="192.3" r="0.1"/>
						<circle fill="#5481C1" cx="103.7" cy="191.1" r="0.1"/>
						<circle fill="#7F904C" cx="103.7" cy="191.7" r="0.1"/>
						<circle fill="#5481C1" cx="103.7" cy="192.3" r="0.1"/>
						<path fill="#5481C1" d="M104.5,190.8c0,0.1,0,0.1,0.1,0.1c0.1,0,0.1,0,0.1-0.1H104.5z"/>
						<path fill="#5481C1" d="M103.9,190.8c0,0.1,0,0.1,0.1,0.1c0.1,0,0.1,0,0.1-0.1H103.9z"/>
					</g>
					<g>
						<circle cx="104.9" cy="192.9" r="0.1"/>
						<path fill="#5481C1" d="M104.5,194.5c0-0.1,0-0.1,0.1-0.1c0.1,0,0.1,0,0.1,0.1H104.5z"/>
						<path fill="#5481C1" d="M103.9,194.5c0-0.1,0-0.1,0.1-0.1c0.1,0,0.1,0,0.1,0.1H103.9z"/>
						<circle fill="#5481C1" cx="104.9" cy="192.9" r="0.1"/>
						<circle fill="#7F904C" cx="104.9" cy="193.5" r="0.1"/>
						<circle fill="#5481C1" cx="104.9" cy="194.2" r="0.1"/>
						<circle fill="#7F904C" cx="104" cy="193.2" r="0.1"/>
						<circle fill="#7F904C" cx="104" cy="193.9" r="0.1"/>
						<circle fill="#7F904C" cx="104.6" cy="193.2" r="0.1"/>
						<circle fill="#7F904C" cx="104.6" cy="193.9" r="0.1"/>
						<circle fill="#7F904C" cx="104.3" cy="192.9" r="0.1"/>
						<circle fill="#5481C1" cx="104.3" cy="193.5" r="0.1"/>
						<circle fill="#7F904C" cx="104.3" cy="194.2" r="0.1"/>
						<circle fill="#5481C1" cx="103.7" cy="192.9" r="0.1"/>
						<circle fill="#7F904C" cx="103.7" cy="193.5" r="0.1"/>
						<circle fill="#5481C1" cx="103.7" cy="194.2" r="0.1"/>
						<path fill="#5481C1" d="M104.5,192.6c0,0.1,0,0.1,0.1,0.1c0.1,0,0.1,0,0.1-0.1H104.5z"/>
						<path fill="#5481C1" d="M103.9,192.6c0,0.1,0,0.1,0.1,0.1c0.1,0,0.1,0,0.1-0.1H103.9z"/>
					</g>
					<g>
						<circle cx="104.9" cy="194.8" r="0.1"/>
						<path fill="#5481C1" d="M104.5,196.3c0-0.1,0-0.1,0.1-0.1c0.1,0,0.1,0,0.1,0.1H104.5z"/>
						<path fill="#5481C1" d="M103.9,196.3c0-0.1,0-0.1,0.1-0.1c0.1,0,0.1,0,0.1,0.1H103.9z"/>
						<circle fill="#5481C1" cx="104.9" cy="194.8" r="0.1"/>
						<circle fill="#7F904C" cx="104.9" cy="195.4" r="0.1"/>
						<circle fill="#5481C1" cx="104.9" cy="196" r="0.1"/>
						<circle fill="#7F904C" cx="104" cy="195.1" r="0.1"/>
						<circle fill="#7F904C" cx="104" cy="195.7" r="0.1"/>
						<circle fill="#7F904C" cx="104.6" cy="195.1" r="0.1"/>
						<circle fill="#7F904C" cx="104.6" cy="195.7" r="0.1"/>
						<circle fill="#7F904C" cx="104.3" cy="194.8" r="0.1"/>
						<circle fill="#5481C1" cx="104.3" cy="195.4" r="0.1"/>
						<circle fill="#7F904C" cx="104.3" cy="196" r="0.1"/>
						<circle fill="#5481C1" cx="103.7" cy="194.8" r="0.1"/>
						<circle fill="#7F904C" cx="103.7" cy="195.4" r="0.1"/>
						<circle fill="#5481C1" cx="103.7" cy="196" r="0.1"/>
						<path fill="#5481C1" d="M104.5,194.5c0,0.1,0,0.1,0.1,0.1c0.1,0,0.1,0,0.1-0.1H104.5z"/>
						<path fill="#5481C1" d="M103.9,194.5c0,0.1,0,0.1,0.1,0.1c0.1,0,0.1,0,0.1-0.1H103.9z"/>
					</g>
					<g>
						<circle cx="104.9" cy="196.6" r="0.1"/>
						<path fill="#5481C1" d="M104.5,198.1c0-0.1,0-0.1,0.1-0.1c0.1,0,0.1,0,0.1,0.1H104.5z"/>
						<path fill="#5481C1" d="M103.9,198.1c0-0.1,0-0.1,0.1-0.1c0.1,0,0.1,0,0.1,0.1H103.9z"/>
						<circle fill="#5481C1" cx="104.9" cy="196.6" r="0.1"/>
						<circle fill="#7F904C" cx="104.9" cy="197.2" r="0.1"/>
						<circle fill="#5481C1" cx="104.9" cy="197.8" r="0.1"/>
						<circle fill="#7F904C" cx="104" cy="196.9" r="0.1"/>
						<circle fill="#7F904C" cx="104" cy="197.5" r="0.1"/>
						<circle fill="#7F904C" cx="104.6" cy="196.9" r="0.1"/>
						<circle fill="#7F904C" cx="104.6" cy="197.5" r="0.1"/>
						<circle fill="#7F904C" cx="104.3" cy="196.6" r="0.1"/>
						<circle fill="#5481C1" cx="104.3" cy="197.2" r="0.1"/>
						<circle fill="#7F904C" cx="104.3" cy="197.8" r="0.1"/>
						<circle fill="#5481C1" cx="103.7" cy="196.6" r="0.1"/>
						<circle fill="#7F904C" cx="103.7" cy="197.2" r="0.1"/>
						<circle fill="#5481C1" cx="103.7" cy="197.8" r="0.1"/>
						<path fill="#5481C1" d="M104.5,196.3c0,0.1,0,0.1,0.1,0.1c0.1,0,0.1,0,0.1-0.1H104.5z"/>
						<path fill="#5481C1" d="M103.9,196.3c0,0.1,0,0.1,0.1,0.1c0.1,0,0.1,0,0.1-0.1H103.9z"/>
					</g>
					<g>
						<circle cx="104.9" cy="198.4" r="0.1"/>
						<path fill="#5481C1" d="M104.5,199.9c0-0.1,0-0.1,0.1-0.1c0.1,0,0.1,0,0.1,0.1H104.5z"/>
						<path fill="#5481C1" d="M103.9,199.9c0-0.1,0-0.1,0.1-0.1c0.1,0,0.1,0,0.1,0.1H103.9z"/>
						<circle fill="#5481C1" cx="104.9" cy="198.4" r="0.1"/>
						<circle fill="#7F904C" cx="104.9" cy="199" r="0.1"/>
						<circle fill="#5481C1" cx="104.9" cy="199.6" r="0.1"/>
						<circle fill="#7F904C" cx="104" cy="198.7" r="0.1"/>
						<circle fill="#7F904C" cx="104" cy="199.3" r="0.1"/>
						<circle fill="#7F904C" cx="104.6" cy="198.7" r="0.1"/>
						<circle fill="#7F904C" cx="104.6" cy="199.3" r="0.1"/>
						<circle fill="#7F904C" cx="104.3" cy="198.4" r="0.1"/>
						<circle fill="#5481C1" cx="104.3" cy="199" r="0.1"/>
						<circle fill="#7F904C" cx="104.3" cy="199.6" r="0.1"/>
						<circle fill="#5481C1" cx="103.7" cy="198.4" r="0.1"/>
						<circle fill="#7F904C" cx="103.7" cy="199" r="0.1"/>
						<circle fill="#5481C1" cx="103.7" cy="199.6" r="0.1"/>
						<path fill="#5481C1" d="M104.5,198.1c0,0.1,0,0.1,0.1,0.1c0.1,0,0.1,0,0.1-0.1H104.5z"/>
						<path fill="#5481C1" d="M103.9,198.1c0,0.1,0,0.1,0.1,0.1c0.1,0,0.1,0,0.1-0.1H103.9z"/>
					</g>
				</g>
			</g>
		</g>
		<polygon id="roofs" fill="#595B61" points="153,176 142,169.4 97.4,169.6 95.6,167.9 45,167.8 43.8,165.7 -2.3,165.7 -1.3,175.5 
			17.2,175.5 23.5,169.7 29.5,175.5 46.8,175.5 48.8,177.8 69.5,177.8 75.3,171.4 81.5,177.5 99.7,177.7 105.7,183 125.2,182.7 
			130.8,176.9 136.7,182.1 160.2,182.3 160.5,181.7 		"/>
		<g>
			<line fill="#757A7F" x1="47.5" y1="176.8" x2="47.5" y2="195"/>
			<g>
				<g>
					<g>
						<circle cx="48.1" cy="177.1" r="0.1"/>
						<path fill="#5481C1" d="M47.7,178.6c0-0.1,0-0.1,0.1-0.1c0.1,0,0.1,0,0.1,0.1H47.7z"/>
						<path fill="#5481C1" d="M47.1,178.6c0-0.1,0-0.1,0.1-0.1c0.1,0,0.1,0,0.1,0.1H47.1z"/>
						<circle fill="#5481C1" cx="48.1" cy="177.1" r="0.1"/>
						<circle fill="#7F904C" cx="48.1" cy="177.7" r="0.1"/>
						<circle fill="#5481C1" cx="48.1" cy="178.3" r="0.1"/>
						<circle fill="#7F904C" cx="47.2" cy="177.4" r="0.1"/>
						<circle fill="#7F904C" cx="47.2" cy="178" r="0.1"/>
						<circle fill="#7F904C" cx="47.8" cy="177.4" r="0.1"/>
						<circle fill="#7F904C" cx="47.8" cy="178" r="0.1"/>
						<circle fill="#7F904C" cx="47.5" cy="177.1" r="0.1"/>
						<circle fill="#5481C1" cx="47.5" cy="177.7" r="0.1"/>
						<circle fill="#7F904C" cx="47.5" cy="178.3" r="0.1"/>
						<circle fill="#5481C1" cx="46.9" cy="177.1" r="0.1"/>
						<circle fill="#7F904C" cx="46.9" cy="177.7" r="0.1"/>
						<circle fill="#5481C1" cx="46.9" cy="178.3" r="0.1"/>
						<path fill="#5481C1" d="M47.7,176.8c0,0.1,0,0.1,0.1,0.1c0.1,0,0.1,0,0.1-0.1H47.7z"/>
						<path fill="#5481C1" d="M47.1,176.8c0,0.1,0,0.1,0.1,0.1c0.1,0,0.1,0,0.1-0.1H47.1z"/>
					</g>
					<g>
						<circle cx="48.1" cy="178.9" r="0.1"/>
						<path fill="#5481C1" d="M47.7,180.4c0-0.1,0-0.1,0.1-0.1c0.1,0,0.1,0,0.1,0.1H47.7z"/>
						<path fill="#5481C1" d="M47.1,180.4c0-0.1,0-0.1,0.1-0.1c0.1,0,0.1,0,0.1,0.1H47.1z"/>
						<circle fill="#5481C1" cx="48.1" cy="178.9" r="0.1"/>
						<circle fill="#7F904C" cx="48.1" cy="179.5" r="0.1"/>
						<circle fill="#5481C1" cx="48.1" cy="180.1" r="0.1"/>
						<circle fill="#7F904C" cx="47.2" cy="179.2" r="0.1"/>
						<circle fill="#7F904C" cx="47.2" cy="179.8" r="0.1"/>
						<circle fill="#7F904C" cx="47.8" cy="179.2" r="0.1"/>
						<circle fill="#7F904C" cx="47.8" cy="179.8" r="0.1"/>
						<circle fill="#7F904C" cx="47.5" cy="178.9" r="0.1"/>
						<circle fill="#5481C1" cx="47.5" cy="179.5" r="0.1"/>
						<circle fill="#7F904C" cx="47.5" cy="180.1" r="0.1"/>
						<circle fill="#5481C1" cx="46.9" cy="178.9" r="0.1"/>
						<circle fill="#7F904C" cx="46.9" cy="179.5" r="0.1"/>
						<circle fill="#5481C1" cx="46.9" cy="180.1" r="0.1"/>
						<path fill="#5481C1" d="M47.7,178.6c0,0.1,0,0.1,0.1,0.1c0.1,0,0.1,0,0.1-0.1H47.7z"/>
						<path fill="#5481C1" d="M47.1,178.6c0,0.1,0,0.1,0.1,0.1c0.1,0,0.1,0,0.1-0.1H47.1z"/>
					</g>
					<g>
						<circle cx="48.1" cy="180.7" r="0.1"/>
						<path fill="#5481C1" d="M47.7,182.3c0-0.1,0-0.1,0.1-0.1c0.1,0,0.1,0,0.1,0.1H47.7z"/>
						<path fill="#5481C1" d="M47.1,182.3c0-0.1,0-0.1,0.1-0.1c0.1,0,0.1,0,0.1,0.1H47.1z"/>
						<circle fill="#5481C1" cx="48.1" cy="180.7" r="0.1"/>
						<circle fill="#7F904C" cx="48.1" cy="181.3" r="0.1"/>
						<circle fill="#5481C1" cx="48.1" cy="182" r="0.1"/>
						<circle fill="#7F904C" cx="47.2" cy="181" r="0.1"/>
						<circle fill="#7F904C" cx="47.2" cy="181.6" r="0.1"/>
						<circle fill="#7F904C" cx="47.8" cy="181" r="0.1"/>
						<circle fill="#7F904C" cx="47.8" cy="181.6" r="0.1"/>
						<circle fill="#7F904C" cx="47.5" cy="180.7" r="0.1"/>
						<circle fill="#5481C1" cx="47.5" cy="181.3" r="0.1"/>
						<circle fill="#7F904C" cx="47.5" cy="182" r="0.1"/>
						<circle fill="#5481C1" cx="46.9" cy="180.7" r="0.1"/>
						<circle fill="#7F904C" cx="46.9" cy="181.3" r="0.1"/>
						<circle fill="#5481C1" cx="46.9" cy="182" r="0.1"/>
						<path fill="#5481C1" d="M47.7,180.4c0,0.1,0,0.1,0.1,0.1c0.1,0,0.1,0,0.1-0.1H47.7z"/>
						<path fill="#5481C1" d="M47.1,180.4c0,0.1,0,0.1,0.1,0.1c0.1,0,0.1,0,0.1-0.1H47.1z"/>
					</g>
					<g>
						<circle cx="48.1" cy="182.6" r="0.1"/>
						<path fill="#5481C1" d="M47.7,184.1c0-0.1,0-0.1,0.1-0.1c0.1,0,0.1,0,0.1,0.1H47.7z"/>
						<path fill="#5481C1" d="M47.1,184.1c0-0.1,0-0.1,0.1-0.1c0.1,0,0.1,0,0.1,0.1H47.1z"/>
						<circle fill="#5481C1" cx="48.1" cy="182.6" r="0.1"/>
						<circle fill="#7F904C" cx="48.1" cy="183.2" r="0.1"/>
						<circle fill="#5481C1" cx="48.1" cy="183.8" r="0.1"/>
						<circle fill="#7F904C" cx="47.2" cy="182.9" r="0.1"/>
						<circle fill="#7F904C" cx="47.2" cy="183.5" r="0.1"/>
						<circle fill="#7F904C" cx="47.8" cy="182.9" r="0.1"/>
						<circle fill="#7F904C" cx="47.8" cy="183.5" r="0.1"/>
						<circle fill="#7F904C" cx="47.5" cy="182.6" r="0.1"/>
						<circle fill="#5481C1" cx="47.5" cy="183.2" r="0.1"/>
						<circle fill="#7F904C" cx="47.5" cy="183.8" r="0.1"/>
						<circle fill="#5481C1" cx="46.9" cy="182.6" r="0.1"/>
						<circle fill="#7F904C" cx="46.9" cy="183.2" r="0.1"/>
						<circle fill="#5481C1" cx="46.9" cy="183.8" r="0.1"/>
						<path fill="#5481C1" d="M47.7,182.3c0,0.1,0,0.1,0.1,0.1c0.1,0,0.1,0,0.1-0.1H47.7z"/>
						<path fill="#5481C1" d="M47.1,182.3c0,0.1,0,0.1,0.1,0.1c0.1,0,0.1,0,0.1-0.1H47.1z"/>
					</g>
					<g>
						<circle cx="48.1" cy="184.4" r="0.1"/>
						<path fill="#5481C1" d="M47.7,185.9c0-0.1,0-0.1,0.1-0.1c0.1,0,0.1,0,0.1,0.1H47.7z"/>
						<path fill="#5481C1" d="M47.1,185.9c0-0.1,0-0.1,0.1-0.1c0.1,0,0.1,0,0.1,0.1H47.1z"/>
						<circle fill="#5481C1" cx="48.1" cy="184.4" r="0.1"/>
						<circle fill="#7F904C" cx="48.1" cy="185" r="0.1"/>
						<circle fill="#5481C1" cx="48.1" cy="185.6" r="0.1"/>
						<circle fill="#7F904C" cx="47.2" cy="184.7" r="0.1"/>
						<circle fill="#7F904C" cx="47.2" cy="185.3" r="0.1"/>
						<circle fill="#7F904C" cx="47.8" cy="184.7" r="0.1"/>
						<circle fill="#7F904C" cx="47.8" cy="185.3" r="0.1"/>
						<circle fill="#7F904C" cx="47.5" cy="184.4" r="0.1"/>
						<circle fill="#5481C1" cx="47.5" cy="185" r="0.1"/>
						<circle fill="#7F904C" cx="47.5" cy="185.6" r="0.1"/>
						<circle fill="#5481C1" cx="46.9" cy="184.4" r="0.1"/>
						<circle fill="#7F904C" cx="46.9" cy="185" r="0.1"/>
						<circle fill="#5481C1" cx="46.9" cy="185.6" r="0.1"/>
						<path fill="#5481C1" d="M47.7,184.1c0,0.1,0,0.1,0.1,0.1c0.1,0,0.1,0,0.1-0.1H47.7z"/>
						<path fill="#5481C1" d="M47.1,184.1c0,0.1,0,0.1,0.1,0.1c0.1,0,0.1,0,0.1-0.1H47.1z"/>
					</g>
					<g>
						<circle cx="48.1" cy="186.2" r="0.1"/>
						<path fill="#5481C1" d="M47.7,187.7c0-0.1,0-0.1,0.1-0.1c0.1,0,0.1,0,0.1,0.1H47.7z"/>
						<path fill="#5481C1" d="M47.1,187.7c0-0.1,0-0.1,0.1-0.1c0.1,0,0.1,0,0.1,0.1H47.1z"/>
						<circle fill="#5481C1" cx="48.1" cy="186.2" r="0.1"/>
						<circle fill="#7F904C" cx="48.1" cy="186.8" r="0.1"/>
						<circle fill="#5481C1" cx="48.1" cy="187.4" r="0.1"/>
						<circle fill="#7F904C" cx="47.2" cy="186.5" r="0.1"/>
						<circle fill="#7F904C" cx="47.2" cy="187.1" r="0.1"/>
						<circle fill="#7F904C" cx="47.8" cy="186.5" r="0.1"/>
						<circle fill="#7F904C" cx="47.8" cy="187.1" r="0.1"/>
						<circle fill="#7F904C" cx="47.5" cy="186.2" r="0.1"/>
						<circle fill="#5481C1" cx="47.5" cy="186.8" r="0.1"/>
						<circle fill="#7F904C" cx="47.5" cy="187.4" r="0.1"/>
						<circle fill="#5481C1" cx="46.9" cy="186.2" r="0.1"/>
						<circle fill="#7F904C" cx="46.9" cy="186.8" r="0.1"/>
						<circle fill="#5481C1" cx="46.9" cy="187.4" r="0.1"/>
						<path fill="#5481C1" d="M47.7,185.9c0,0.1,0,0.1,0.1,0.1c0.1,0,0.1,0,0.1-0.1H47.7z"/>
						<path fill="#5481C1" d="M47.1,185.9c0,0.1,0,0.1,0.1,0.1c0.1,0,0.1,0,0.1-0.1H47.1z"/>
					</g>
					<g>
						<circle cx="48.1" cy="188" r="0.1"/>
						<path fill="#5481C1" d="M47.7,189.6c0-0.1,0-0.1,0.1-0.1c0.1,0,0.1,0,0.1,0.1H47.7z"/>
						<path fill="#5481C1" d="M47.1,189.6c0-0.1,0-0.1,0.1-0.1c0.1,0,0.1,0,0.1,0.1H47.1z"/>
						<circle fill="#5481C1" cx="48.1" cy="188" r="0.1"/>
						<circle fill="#7F904C" cx="48.1" cy="188.6" r="0.1"/>
						<circle fill="#5481C1" cx="48.1" cy="189.3" r="0.1"/>
						<circle fill="#7F904C" cx="47.2" cy="188.3" r="0.1"/>
						<circle fill="#7F904C" cx="47.2" cy="188.9" r="0.1"/>
						<circle fill="#7F904C" cx="47.8" cy="188.3" r="0.1"/>
						<circle fill="#7F904C" cx="47.8" cy="188.9" r="0.1"/>
						<circle fill="#7F904C" cx="47.5" cy="188" r="0.1"/>
						<circle fill="#5481C1" cx="47.5" cy="188.6" r="0.1"/>
						<circle fill="#7F904C" cx="47.5" cy="189.3" r="0.1"/>
						<circle fill="#5481C1" cx="46.9" cy="188" r="0.1"/>
						<circle fill="#7F904C" cx="46.9" cy="188.6" r="0.1"/>
						<circle fill="#5481C1" cx="46.9" cy="189.3" r="0.1"/>
						<path fill="#5481C1" d="M47.7,187.7c0,0.1,0,0.1,0.1,0.1c0.1,0,0.1,0,0.1-0.1H47.7z"/>
						<path fill="#5481C1" d="M47.1,187.7c0,0.1,0,0.1,0.1,0.1c0.1,0,0.1,0,0.1-0.1H47.1z"/>
					</g>
					<g>
						<circle cx="48.1" cy="189.9" r="0.1"/>
						<path fill="#5481C1" d="M47.7,191.4c0-0.1,0-0.1,0.1-0.1c0.1,0,0.1,0,0.1,0.1H47.7z"/>
						<path fill="#5481C1" d="M47.1,191.4c0-0.1,0-0.1,0.1-0.1c0.1,0,0.1,0,0.1,0.1H47.1z"/>
						<circle fill="#5481C1" cx="48.1" cy="189.9" r="0.1"/>
						<circle fill="#7F904C" cx="48.1" cy="190.5" r="0.1"/>
						<circle fill="#5481C1" cx="48.1" cy="191.1" r="0.1"/>
						<circle fill="#7F904C" cx="47.2" cy="190.2" r="0.1"/>
						<circle fill="#7F904C" cx="47.2" cy="190.8" r="0.1"/>
						<circle fill="#7F904C" cx="47.8" cy="190.2" r="0.1"/>
						<circle fill="#7F904C" cx="47.8" cy="190.8" r="0.1"/>
						<circle fill="#7F904C" cx="47.5" cy="189.9" r="0.1"/>
						<circle fill="#5481C1" cx="47.5" cy="190.5" r="0.1"/>
						<circle fill="#7F904C" cx="47.5" cy="191.1" r="0.1"/>
						<circle fill="#5481C1" cx="46.9" cy="189.9" r="0.1"/>
						<circle fill="#7F904C" cx="46.9" cy="190.5" r="0.1"/>
						<circle fill="#5481C1" cx="46.9" cy="191.1" r="0.1"/>
						<path fill="#5481C1" d="M47.7,189.6c0,0.1,0,0.1,0.1,0.1c0.1,0,0.1,0,0.1-0.1H47.7z"/>
						<path fill="#5481C1" d="M47.1,189.6c0,0.1,0,0.1,0.1,0.1c0.1,0,0.1,0,0.1-0.1H47.1z"/>
					</g>
					<g>
						<circle cx="48.1" cy="191.7" r="0.1"/>
						<path fill="#5481C1" d="M47.7,193.2c0-0.1,0-0.1,0.1-0.1c0.1,0,0.1,0,0.1,0.1H47.7z"/>
						<path fill="#5481C1" d="M47.1,193.2c0-0.1,0-0.1,0.1-0.1c0.1,0,0.1,0,0.1,0.1H47.1z"/>
						<circle fill="#5481C1" cx="48.1" cy="191.7" r="0.1"/>
						<circle fill="#7F904C" cx="48.1" cy="192.3" r="0.1"/>
						<circle fill="#5481C1" cx="48.1" cy="192.9" r="0.1"/>
						<circle fill="#7F904C" cx="47.2" cy="192" r="0.1"/>
						<circle fill="#7F904C" cx="47.2" cy="192.6" r="0.1"/>
						<circle fill="#7F904C" cx="47.8" cy="192" r="0.1"/>
						<circle fill="#7F904C" cx="47.8" cy="192.6" r="0.1"/>
						<circle fill="#7F904C" cx="47.5" cy="191.7" r="0.1"/>
						<circle fill="#5481C1" cx="47.5" cy="192.3" r="0.1"/>
						<circle fill="#7F904C" cx="47.5" cy="192.9" r="0.1"/>
						<circle fill="#5481C1" cx="46.9" cy="191.7" r="0.1"/>
						<circle fill="#7F904C" cx="46.9" cy="192.3" r="0.1"/>
						<circle fill="#5481C1" cx="46.9" cy="192.9" r="0.1"/>
						<path fill="#5481C1" d="M47.7,191.4c0,0.1,0,0.1,0.1,0.1c0.1,0,0.1,0,0.1-0.1H47.7z"/>
						<path fill="#5481C1" d="M47.1,191.4c0,0.1,0,0.1,0.1,0.1c0.1,0,0.1,0,0.1-0.1H47.1z"/>
					</g>
					<g>
						<circle cx="48.1" cy="193.5" r="0.1"/>
						<path fill="#5481C1" d="M47.7,195c0-0.1,0-0.1,0.1-0.1c0.1,0,0.1,0,0.1,0.1H47.7z"/>
						<path fill="#5481C1" d="M47.1,195c0-0.1,0-0.1,0.1-0.1c0.1,0,0.1,0,0.1,0.1H47.1z"/>
						<circle fill="#5481C1" cx="48.1" cy="193.5" r="0.1"/>
						<circle fill="#7F904C" cx="48.1" cy="194.1" r="0.1"/>
						<circle fill="#5481C1" cx="48.1" cy="194.7" r="0.1"/>
						<circle fill="#7F904C" cx="47.2" cy="193.8" r="0.1"/>
						<circle fill="#7F904C" cx="47.2" cy="194.4" r="0.1"/>
						<circle fill="#7F904C" cx="47.8" cy="193.8" r="0.1"/>
						<circle fill="#7F904C" cx="47.8" cy="194.4" r="0.1"/>
						<circle fill="#7F904C" cx="47.5" cy="193.5" r="0.1"/>
						<circle fill="#5481C1" cx="47.5" cy="194.1" r="0.1"/>
						<circle fill="#7F904C" cx="47.5" cy="194.7" r="0.1"/>
						<circle fill="#5481C1" cx="46.9" cy="193.5" r="0.1"/>
						<circle fill="#7F904C" cx="46.9" cy="194.1" r="0.1"/>
						<circle fill="#5481C1" cx="46.9" cy="194.7" r="0.1"/>
						<path fill="#5481C1" d="M47.7,193.2c0,0.1,0,0.1,0.1,0.1c0.1,0,0.1,0,0.1-0.1H47.7z"/>
						<path fill="#5481C1" d="M47.1,193.2c0,0.1,0,0.1,0.1,0.1c0.1,0,0.1,0,0.1-0.1H47.1z"/>
					</g>
				</g>
			</g>
		</g>
	</g>
	<g id="shrubs">
		<path fill="#647F62" d="M82.6,187.2c-3.2,0-3.2,11,0,11C85.7,198.2,85.8,187.2,82.6,187.2z"/>
		<path fill="#647F62" d="M69.7,186.7c-3.3,0-3.4,11.5,0,11.5C73,198.3,73.1,186.7,69.7,186.7z"/>
		<path fill="#647F62" d="M125.7,189.1c-3.5,0-3.5,12,0,12C129.2,201.1,129.2,189.1,125.7,189.1z"/>
		<path fill="#647F62" d="M30,183.8c-3,0-3,10.4,0,10.4C33,194.2,33.1,183.8,30,183.8z"/>
		<path fill="#647F62" d="M137.6,192.4c-2.4,0-2.4,8.3,0,8.3C140,200.7,140.1,192.4,137.6,192.4z"/>
		<path fill="#647F62" d="M172,185.3c-4.3,0-4.3,14.8,0,14.8C176.2,200.1,176.3,185.3,172,185.3z"/>
		<path fill="#647F62" d="M207.7,192.2c-2,0-2.1,7.1,0,7.1C209.7,199.3,209.8,192.2,207.7,192.2z"/>
		<path fill="#647F62" d="M13.3,186.8c-4.7,0-4.7,7,0,7C18.1,193.8,18.1,186.8,13.3,186.8z"/>
		<path fill="#647F62" d="M195.5,193.4c-4.7,0-4.7,7,0,7C200.2,200.4,200.2,193.4,195.5,193.4z"/>
		<path display="none" fill="#647F62" d="M146,201.1c-0.4-0.1-0.8-0.2-1.2-0.3c-0.2-0.1-0.4-0.1-0.6-0.2c0.3,0.1-0.5-0.3-0.1-0.1
			c-0.6-0.5-1.6-0.6-2.2,0c-0.6,0.5-0.7,1.6,0,2.1c1,0.8,2.1,1,3.3,1.4c0.8,0.3,1.8-0.3,1.9-1C147.3,202.1,146.9,201.3,146,201.1z"
			/>
	</g>
	<g id="Frange">
		<polygon id="fnt" fill="#847F7B" points="-10.8,201.6 -11.5,224.6 365.8,224.6 366.5,206.8 288.9,209 243.5,206.6 167.3,206.8 
			44.4,204.5 		"/>
		<g>
			<g>
				<path fill="#938670" d="M77.7,206c0-0.1-1.2-0.3,0.8-0.1c6.2,0.4,11.2,1,17.4,1.3c0.2,0,0.3-0.1,0.5-0.1
					c1.2,0.1,2.4,0.2,3.6,0.4c1.2,0.2,2.6,0.3,3.9,0.2c1.3,0,2.6-0.2,3.9-0.4c0.6-0.1,1.3-0.2,1.9-0.3c0.6-0.1,1.2-0.2,1.8-0.2
					c4.6-0.3,9.4-0.2,14.1-0.1c4.7,0.1,9.4,0.3,14.1,0.5c-0.2,0-0.4-0.1,0.6,0c1,0,2,0.1,3.2,0.2c1.1,0,2.3,0.2,3.7,0.1
					c2.5-0.1,5.3-0.1,8.1-0.2c0.8,0,1.7,0,2.5-0.1c0.6,0,0.8,0,0.9-0.1c2.5,0,4.8,0,6.8,0c0.9,0,1.7,0,2.6,0c0.4,0,0.8,0,1.2,0.1
					l0.6,0.1l0.7,0.1c1.7,0.2,3.5,0.3,5.2,0.5c1.7,0.1,3.5,0.3,5.1,0.5l0.7,0.1c0.3,0,0.5,0,0.7,0c0.5,0,0.9,0,1.3,0
					c0.9,0,1.8,0,2.6-0.1c1.7-0.1,3.5-0.2,5.2-0.3c0.4,0,0.9-0.1,1.2-0.1c0.4,0,0.7,0,1.2,0c0.9,0,1.8,0.1,2.7,0.1
					c1.8,0,3.5,0,5.3,0c0.9,0,1.7,0,2.6,0l0.6,0c0.2,0,0.4,0,0.5,0c0.4,0,0.8,0.1,1.2,0.2c0.4,0.1,0.9,0.2,1.4,0.2
					c0.3,0,0.5,0,0.8,0.1l0.7,0l2.7,0c1.8,0,3.6,0,5.4,0c3.6,0,7.2,0,10.8-0.1c3.5,0,7.2,0.3,10.9,0.5c3.7,0.2,7.4,0.5,11.2,0.8
					c3.3,0.3,6.5,0.1,9.7,0c3.2-0.1,6.3-0.3,9.3-0.2c0.5,0,1.1,0,1.6,0.1c0.6,0.1,1.2,0.2,1.8,0.2c1.2,0.1,2.4,0.2,3.7,0.3
					c1.2,0.1,2.5,0.2,3.8,0.3c0.6,0.1,1.3,0.1,1.9,0.2c0.3,0,0.6,0.1,0.9,0.1l0.4,0.1l0.6,0.1c2.7,0.2,5.2,0.1,7.8,0
					c2.5-0.1,4.9-0.3,7.1-0.5c-0.2-0.1,0-0.1,0.5-0.3c0.2-0.1,0.5-0.1,0.9-0.2c0.4-0.1,0.7-0.2,1.1-0.3c1.7-0.3,4.2-0.6,6.5-0.7
					c1.2-0.1,2.3-0.1,3.4,0c1,0.1,1.9,0.1,2.7,0.2c1.4,0.1,1.9,0,0.9-0.2c1.5,0.2,3.1,0.4,4.7,0.3c1.8-0.1,3.4,0,5,0.2
					c3,0.3,5.3,0.7,5.6,0.6c0.7-0.1,2.2,0,5.4,0.3c0.4,0,0.8,0.1,1.3,0.1c0.2,0,0.4,0,0.7,0c0.3,0,0.5,0,0.8,0
					c1.1,0,2.3,0.1,3.6,0.2c2.7,0.1,5.9,0.4,9.8,0.7c6.1,0.5,15.5,1.5,17.7,1.9c1.7,0.2-0.3-0.1-2.3-0.3c-2-0.3-4-0.5-2.3-0.3
					c-5.7-0.7-11.4-1.3-17-1.8c-2.8-0.3-5.6-0.5-8.5-0.8l-2.1-0.2c-0.6-0.1-1.3-0.2-2-0.3l-4.1-0.7c-2.8-0.5-5.6-1-8.5-1.2
					c-0.7-0.1-1.5-0.1-2.3-0.1l-1.1,0c-0.3,0-0.6,0-0.9,0c-1.2-0.1-2.6-0.3-4-0.4c-1.4-0.2-2.8-0.4-4.3-0.5c-1.7-0.1-3,0-4.5,0
					c-1.4,0.1-2.9,0.1-4.4,0.3c-0.4,0-0.9,0.1-1.3,0.2l-0.3,0l-0.5,0.1c-0.6,0.1-1.3,0.1-2,0.2c-2.7,0.2-5.5,0.3-8.3,0.3
					c-1.4,0-2.8,0-3.9-0.1c-0.1,0-0.3,0-0.3,0c-0.1,0-0.1,0-0.4-0.1c-0.5-0.1-0.8-0.1-1.2-0.2c-0.8-0.1-1.5-0.2-2.2-0.3l-4.3-0.4
					c-1.4-0.1-2.8-0.2-4.1-0.4c-0.2,0-0.3,0-0.4-0.1l-0.6-0.1c-0.3,0-0.5-0.1-0.7-0.1l-0.6,0c-0.8,0-1.5,0-2.2,0c-1.4,0-2.9,0-4.3,0
					c-2.8,0-5.7,0.1-8.4,0.1c-0.7,0-1.4,0-2,0c-0.3,0-0.7,0-1,0l-1-0.1l-4.3-0.3c-5.7-0.4-11.4-0.8-17.3-0.9c-2,0-5.3,0.1-9.8,0.2
					c-2.2,0-4.7,0.1-7.4,0.1c-0.7,0-1.4,0-2.1,0c-0.4,0-0.7,0-1.1,0c-0.4,0-0.5,0-0.9,0c-0.6-0.1-1.3-0.2-2.2-0.3
					c-0.4-0.1-1-0.1-1.4-0.1c-0.4,0-0.8,0-1.2,0c-3.2,0-6.5,0.3-9.9,0.2c-0.2,0-0.4,0-0.7,0l-0.8,0c-0.3,0-0.5,0-0.7,0.1l-0.6,0.1
					c-0.9,0.1-1.8,0.2-2.6,0.3c-1.8,0.2-3.6,0.3-5.4,0.4c-0.4,0-0.9,0-1.3,0c-0.1,0-0.5,0-0.7-0.1l-0.7,0c-0.9,0-1.9-0.1-2.9-0.1
					c-1.9-0.1-3.8-0.1-5.8-0.2l-1.4-0.1c-0.5,0-1.1-0.1-1.6-0.1c-1,0-2,0-3,0.1c-2,0.1-4,0.2-6,0.2c-4,0.2-8,0.3-11.9,0.5
					c-1,0-1.9,0.1-2.9,0c-1,0-2-0.1-3-0.1c-2-0.1-3.9-0.2-5.9-0.3c-7.8-0.4-15.3-0.9-22.4-1c-0.9,0-1.8,0-2.6,0
					c-0.9,0-1.8,0.1-2.6,0.2c-1.7,0.2-3.2,0.3-4.7,0.2c-0.7,0-1.5-0.1-2.2-0.2c-0.8-0.1-1.5-0.2-2.2-0.4c-1.5-0.2-2.9-0.4-4.3-0.6
					c-5.5-0.7-10.1-1.2-13.5-1.6c-0.8-0.1-1.6-0.2-2.4-0.3c-1-0.1-1.7-0.2-2.9-0.3c-1-0.1-2-0.1-3-0.1c-2,0-3.9-0.1-5.9-0.1
					c-2,0-4,0-6,0.1l-3,0.1c-0.4,0-1.2,0-1.7,0.1l-1.5,0.2c-2,0.3-3.9,0.5-5.8,0.7c-1.9,0.2-3.8,0.5-5.4,0.5c-1.9,0-3.7,0-5.4,0.1
					c-0.9,0-1.7,0-2.5,0c-0.7,0-1.5,0-2.3-0.1c-1.4-0.1-2.9-0.2-4.3-0.3l-2.2-0.1l-1.1-0.1c-0.4,0-0.8,0-1.2,0
					c-1.6,0.1-3,0.4-4.3,0.5c-0.3,0-0.6,0-1,0c-0.3,0-0.6-0.1-1-0.1c-0.8-0.1-1.5-0.2-2.2-0.3c0.7,0.1,1.4,0.2,2,0.3
					c0.7,0.2,1.2,0.3,1.8,0.3c1.1,0.1,2.2-0.1,3.3-0.2c-1.5,0.2-2.9,0.4-4.2,0.2c-0.3-0.1-0.7-0.1-1-0.2c-0.4-0.1-0.7-0.1-1-0.2
					c-0.7-0.1-1.4-0.2-2-0.2c-2.5-0.2-4.6-0.1-5.8-0.1c-3.2,0.1-5.1,0.2-6.1,0.3c-1,0-1.2,0.1-0.8,0.1c0.8,0.1,3.8,0,6.2,0.1
					c1.7,0,1.4,0.1,1.4,0.2c-0.1,0.1,0.1,0.1,2.8,0.3c-3.9-0.2-5.9-0.1-9.9-0.1c-0.2,0.1,2.8,0,5.6,0c2.8,0,5.2,0.2,3.8,0.2
					c-1.9-0.1-3.9-0.1-5.9-0.1c-2,0-4.1,0.1-6.1-0.1c0.3,0.1,1.4,0.1,2.7,0.2c1.3,0,3,0,4.6,0c3.2,0,6.1,0.2,5.8,0.3
					c-1.1-0.1-3.8-0.2-6.4-0.2c-2.6,0-4.8,0-5.4,0c-0.1,0,0.9,0.1,2.1,0.1c1.2,0,2.7,0,3.7,0c-3,0-5.8,0.2-7.9-0.2
					c-0.5-0.1-1.1-0.2-1.5-0.3c-0.4-0.1-0.9-0.3-1.2-0.4c-0.7-0.2-1.3-0.1-1.8-0.1c-0.9,0.1-1,0.1-0.3,0.1c0.4,0,0.9,0,1.7,0.1
					c0.4,0.1,0.8,0.2,1.4,0.4c0.6,0.2,1.2,0.3,1.9,0.4c-0.5-0.1-1-0.2-1.5-0.3c-0.3-0.1-0.5-0.2-0.8-0.3c-0.3-0.1-0.5-0.2-0.7-0.2
					c-1-0.2-2.2-0.2-3.3,0c-2.3,0.3-4.6,1-6.7,0.9c0,0,0,0,0,0c2.1,0.1,5.5-0.9,7.4-1c-2.3,0.2-4.5,0.9-6.9,1c0.4,0,0.8,0,1.2-0.1
					c1.7-0.2,3.4-0.6,5.2-0.8c-1.5,0.2-3,0.5-4.5,0.7c1.2-0.2,2.5-0.4,3.9-0.6c1.3-0.2,2.7-0.3,3.8,0c0.5,0.1,1.2,0.4,1.8,0.6
					c0.6,0.2,1.3,0.3,1.9,0.4c2.4,0.3,4.5,0.3,6,0.3c3,0.1,5.9,0.2,8.8,0.6c0.7,0.1,1.4,0.2,2.1,0.4c0.4,0.1,0.7,0.2,1,0.2
					c0.4,0.1,0.9,0.2,1.3,0.2c1.8,0.2,3.4-0.1,4.7-0.1c0.7,0,1.2,0,2,0.1l2.2,0.3c1.5,0.2,3,0.4,4.5,0.5c0.8,0.1,1.5,0.2,2.4,0.2
					l2.3,0.1l4.5,0.1l2.2,0.1c1,0,1.7,0,2.5-0.1c1.5-0.1,3-0.3,4.5-0.4l4.4-0.5c0.7-0.1,1.5-0.2,2-0.1l2.2,0l8.9,0l4.4,0
					c0.7,0,1.5,0,2.2,0l0.5,0l0.4,0C77,205.9,77.4,206,77.7,206z"/>
			</g>
		</g>
		<g>
			<g>
				<g>
					<g>
						<g opacity="0.8">
							<path fill="#6EAA6F" d="M236.5,195c1.1,0.1,2.7-0.2,4.5-0.4c1.8-0.1,3.9-0.5,6-0.5c4.2-0.3,8.5-0.2,11.1,0.1
								c2,0.1,3.5,0.3,4.7,0.5c1,0.2-1.3,0-4.7-0.5c-1.5,0-3.3-0.1-5.5-0.1c1.4,0.2,2.7,0.6,3.9,0.9c1.2,0.3,2.3,0.6,3.2,0.9
								c1.3,0,2.6,0.1,4,0.1c5.9,0.3,11.7,0.6,17.5,1.3c2.1,0.3,6.8,0.6,8.8,1c0,0-6.5-0.4-13-0.9c-3.2-0.2-6.5-0.4-8.9-0.5
								c-2.4-0.1-4-0.1-4-0.1c0.2,0,0.5,0.1,0.7,0.1c0,0,0.8,0.1,2.1,0.2c1.3,0.1,3,0.2,4.7,0.4c1.7,0.1,3.4,0.3,4.7,0.4
								c1.3,0.1,2.1,0.2,2.1,0.2c0.8,0,1.5,0.1,2.3,0.2l-2.3-0.2c-2-0.1-4,0-6.2,0c-1.3-0.1-2.9-0.4-4.2-0.5
								c-1.1-0.1-2.1-0.4-3.2-0.7c0,0-0.5,0-1-0.1c-0.5,0-1-0.1-1-0.1c-0.2,0-0.4,0.1-0.6,0.1c0,0,0,0,0,0c0.4,0.4,1.8,0.8,3.7,1.2
								c1.9,0.4,4.2,0.9,6.6,1.3c4.8,0.9,9.7,1.6,11.2,1.5c2.3-0.1,4.4-1.2,6.9-1.3c0.8,0,1.6,0.4,2.2,0.1c0.1-0.2,0.4-0.3,0.7-0.5
								c1.7,0,3.4,0.7,4.7,0.2c0.9-0.2,3.5,2.9,3.7,2.4c0.7-2.1,0.2-0.6,2.4-0.4c0.3,0,1.1-0.8,1.7-0.8c0.9,0.2,1.5,0.2,2.1,0
								c0.6-0.2,1.3-0.5,2.3-0.7c0.8-0.2,1.4-0.3,1.9-0.3c0.5,0,0.9,0,1.3,0c0.8,0.1,1.5,0,2.7-0.6c0.2-0.1,1.2-0.3,2.2-0.4
								c1-0.2,2.1-0.2,2.1-0.2c3.1,0.6,5.2,0,7.4,1.9c1.6-0.4,3.2,0,4.9,0.5c0.9,0.2,1.7,0.5,2.5,0.7c0.5,0.1,0.9,0.2,1.4,0.3
								c0.5,0,0.9,0.1,1.4,0.1c1.8-0.1,3-0.1,4.3,0.1c1.2,0.1,2.4,0.4,3.8,0.5c0.8,0,1.3-0.3,1.7-0.1c0.5,0.2,1.2-0.8,1.8-0.7
								l-0.1,0.6c0.2,0,0.6,0.1,0.8,0.1c0.2,0,0.2,0.2,0.1,0.4c-0.1,0.4-0.1,0.8,0.2,1c0.3,0.3,2.3,0.6,3.5,0.6
								c1.3-0.4,1.9-0.8,2.5-1.1c0-0.3,0.1-0.5,0.2-0.7c0.2-0.1,0.4-0.3,0.6-0.4c0.2-0.6,0.2-1.2,0.4-1.6c0.1-0.8,0.5-1.6,0.9-2.3
								c0.4-0.7,0.8-1.4,0.8-2.2c0-0.2-0.5-0.5-1.1-0.7c-0.6-0.3-1.4-0.5-1.9-0.9c-0.2-0.2,0.3-0.8,0.6-1.3c-1.4,0-1.5-0.6-0.9-1.2
								c-0.3,0-0.7-0.1-0.7-0.1c0.1-0.2,0.3-0.8,0.3-0.8c-1-0.2-1.9-0.3-2.6-0.5c-0.7-0.2-1.3-0.3-1.8-0.5l-0.2-0.1
								c-0.1,0-0.1,0-0.3-0.1l-0.8-0.1c-0.5-0.1-1,0-1.5,0c-1,0.1-1.9,0.3-2.7,0.6c-0.4,0.1-0.8,0.3-1.2,0.6
								c-0.4,0.3-0.8,0.5-1.1,0.7c-0.3,0.2-1.1,0.1-1.3,0.1c-0.3,0.6-0.1,1.2-0.1,1.8c-1-0.1-2.3-0.2-3.2-0.2
								c-0.9,0-1.6,0.2-1.6,1.3c-0.6-0.1-1,0.1-1.5,0.3c-0.5,0.2-1.1,0.4-1.9,0.3c-2.1-0.1-4.9-0.5-7.7-1c-1.5-0.1-3-0.4-4.5-0.7
								c-0.6-0.1-1.1-0.1-1.7-0.2c-2.9-0.3-5.7-0.5-8.4-0.4c-0.6,0-1.3,0-1.9,0c-0.6,0-1.2,0-1.7,0c-1.1,0-2.3,0-3.5,0
								c-4.6-0.1-9.3-0.3-14.7,0.3c-5.5,0.6-11.1,0.6-16.5,0.4c-5.4-0.2-10.6-0.6-15.4-0.9c-2.4-0.1-4.7-0.3-6.8-0.3
								c-1.1,0-2.1-0.1-3.1-0.1c-1,0-1.9,0-2.8,0.1c-3.6,0.1-6.5,0.6-8,1L236.5,195z"/>
						</g>
					</g>
				</g>
			</g>
		</g>
	</g>
</g>
<g id="Doors">
	<rect x="456.5" y="233.7" fill="#938859" width="30" height="55.5"/>
	<polygon fill="#F8F5B1" points="622.4,283.3 622.3,256.7 744.2,257 744.1,283 	"/>
	<polygon fill="#8E8D8B" points="622.1,257.1 621.6,236.4 745.2,236.2 745.4,257.6 	"/>
	<g>
		<path fill="none" d="M674.2,266.2c-0.3,0-0.6,0.1-0.9,0.1h0C673.6,266.2,673.9,266.2,674.2,266.2z"/>
		<path fill="none" d="M667.3,263.3c2.2,0.1,4.4,0.2,6.6,0.2l0,0C671.7,263.5,669.5,263.4,667.3,263.3z"/>
		<path fill="none" d="M667.3,270.4c4.8,0,9.5,0,14.3,0c0,0,0-0.1,0-0.1c-4.7,0-9.3,0-14,0l0,0C667.5,270.3,667.4,270.3,667.3,270.4
			z"/>
		<path fill="none" d="M708.4,257.3L708.4,257.3c0.1,0.1,0.1,0.3,0.1,0.5C708.5,257.6,708.4,257.4,708.4,257.3z"/>
		<path fill="none" d="M744.7,257.4l-35.4-0.1c0.3,2,0.6,4,0.9,6c-0.2,2.1-0.4,4.2-0.5,6.2c0,0.2-0.1,0.5-0.2,0.7
			c-0.2,1.7-0.4,3.5-0.7,5.2c-0.1,0.5-0.5,0.9-0.7,1.3c0.5,1.6-0.7,2.9-3,3.1c-2.6,0.2-5.2,0.3-7.8,0.4c-4,0.1-8.1,0.2-12.1,0.2
			c-6,0-11.9,0-17.9-0.2c-2.7-0.1-5.4-0.5-8-0.9c-1.3-0.2-1.8-1.3-1.4-2.5c-0.4-2.2-0.8-4.3-1.2-6.5c-0.3-2.3-0.5-4.5-0.8-6.8
			c0.3-2.1,0.7-4.3,1-6.4L622,257l0.3,24.7h122.6L744.7,257.4z"/>
		<path fill="none" d="M666.8,263.1L666.8,263.1c0.1,0,0.2,0,0.3,0C666.9,263.1,666.9,263.1,666.8,263.1z"/>
		<path fill="none" d="M667.4,257.4C667.4,257.4,667.4,257.4,667.4,257.4C667.4,257.4,667.4,257.4,667.4,257.4z"/>
		<path fill="#2C2120" d="M707.6,270.8c0-0.1-0.1-0.1-0.2-0.2c-0.2-0.2-0.4-0.3-0.4-0.5c-0.1-1.2,0.1-2.4-0.1-3.6
			c0-0.4-0.7-0.7-1-1.1c-1.5,0.1-3.1,0.3-4.6,0.3c-3.3,0.1-6.6,0.2-9.8,0.3c-1.4,0-2.7,0.1-4.1,0.1c-3.9,0-7.8,0-11.8,0
			c-0.5,0-0.9,0-1.4,0.1c-0.3,0-0.6,0.1-0.9,0.1c-0.2,0.1-0.3,0.3-0.5,0.5c-0.2,0.2-0.3,0.3-0.5,0.4c-1.6,0.7-3.2,1.5-4.9,2.1
			c-0.3,0.1-0.7,0.1-1.1,0.3c1.4,0.1,2.7,0.2,4.1,0.3c0,0,0,0.1,0,0.1c-0.8,0-1.7,0-2.5,0c0,0,0,0,0,0c0,0.1-0.1,0.2-0.1,0.3
			c4.7,0,9.3,0,14,0c0,0,0,0.1,0,0.1c-4.8,0-9.5,0-14.3,0c-0.7,0.1-1.4,0.2-2.1,0.3c11.1,0,22.1,0,33.2,0c0,0.1,0,0.1,0,0.2h-33.8
			c0,0,0,0,0-0.1c-1,0.1-2,0.3-3,0.4c-0.4,0-0.9-0.1-1.3-0.2c-0.7-0.1-1.5-0.2-2.2-0.3v0c-0.5-0.1-1-0.3-1.4-0.4
			c0.4,2.2,0.8,4.3,1.2,6.5c0.2,2.3,2.1,2.2,3.6,2.3c4,0.3,8.1,0.5,12.1,0.6c5.5,0.1,11,0.2,16.6,0.2c5.3-0.1,10.6-0.4,15.9-0.7
			c1.3-0.1,1.8-1.2,2.2-2.3c0.2-0.4,0.6-0.9,0.7-1.3c0.3-1.7,0.5-3.5,0.7-5.2c-0.5,0.2-1.1,0.3-1.6,0.5
			C707.8,270.8,707.7,270.8,707.6,270.8z M673.5,274.4C673.5,274.3,673.5,274.3,673.5,274.4c0.3-0.1,0.7-0.1,1-0.1c0,0,0,0,0,0.1
			C674.2,274.4,673.9,274.4,673.5,274.4z M684.3,274.6c-2.6,0-5.2,0.1-7.8,0.1c-0.2,0-0.5-0.1-0.7-0.2c0.2-0.1,0.5-0.2,0.7-0.2
			c4,0,8,0,12,0c0.6,0,1.2,0.1,1.6,0.2C688.3,274.6,686.3,274.6,684.3,274.6z"/>
		<path fill="#AE69AB" d="M706,279.1c-5.3,0.3-10.6,0.6-15.9,0.7c-5.5,0.1-11,0-16.6-0.2c-4-0.1-8.1-0.3-12.1-0.6
			c-1.5-0.1-3.4,0-3.6-2.3c-0.4,1.2,0.1,2.3,1.4,2.5c2.7,0.4,5.4,0.8,8,0.9c6,0.2,11.9,0.2,17.9,0.2c4,0,8.1-0.1,12.1-0.2
			c2.6-0.1,5.2-0.2,7.8-0.4c2.3-0.2,3.5-1.4,3-3.1C707.8,277.9,707.3,279,706,279.1z"/>
		<path fill="#6F3234" d="M708.5,258.8c0,4,0.4,8-0.6,11.9c0.5-0.2,1.1-0.3,1.6-0.5c0.1-0.2,0.2-0.4,0.2-0.7
			c0.2-2.1,0.4-4.2,0.5-6.2c-0.3-2-0.6-4-0.9-6l-1,0c0.1,0.1,0.1,0.3,0.1,0.5C708.5,258.1,708.5,258.5,708.5,258.8z"/>
		<path fill="#6F3234" d="M656.6,270.3c0.5,0.1,1,0.3,1.4,0.4v0h0c0-0.5,0-1-0.1-1.5c-0.2-2.3-0.3-4.6-0.5-6.8
			c-0.1-1.5-0.1-3.1-0.1-4.6c0-0.2,0.3-0.4,0.6-0.6l-1.1,0c-0.3,2.1-0.7,4.3-1,6.4C656.1,265.8,656.4,268,656.6,270.3z"/>
		<path fill="#D0565D" d="M659.3,261.1c-0.2,1.2-0.9,2.2-0.9,3.5c0,0.2,0,0.5,0,0.5c0.4,0.1,0.9,0.1,1.3,0.2
			c-0.1-0.1-0.2-0.3-0.2-0.4c0.3-0.7,0.5-1.5,0.9-2.2c0.8-1.5,0.7-4.2-0.4-5.6l-1.9,0c0.5,0.9,1,1.7,1.1,2.8
			C659.4,260.3,659.4,260.7,659.3,261.1z"/>
		<path fill="#87181A" d="M657.4,257.7c0,1.5,0,3.1,0.1,4.6c0.1,2.3,0.3,4.6,0.5,6.8c0,0.5,0.1,1,0.1,1.5h0c0.7,0.1,1.5,0.2,2.2,0.3
			c0.1-0.5,0.1-1.1,0.4-1.6c0.3-0.4,0.8-0.8,1.2-0.9c1.9-0.7,3.9-1.3,5.8-1.9c0.6-0.2,1.3-0.4,2-0.4c1.2,0,2.4,0.1,3.6,0.1
			c0.3,0,0.6-0.1,0.9-0.1c0.5,0,0.9-0.1,1.4-0.1c3.9,0,7.8,0,11.8,0c1.4,0,2.7-0.1,4.1-0.1c3.3-0.1,6.6-0.1,9.8-0.3
			c1.5-0.1,3.1-0.2,4.6-0.3c0.5-0.1,1-0.1,1.5-0.1c0.1,0,0.4,0.3,0.4,0.4c-0.1,1.7-0.2,3.4-0.3,5.1c0.1,0,0.2,0,0.3,0
			c1-3.9,0.5-7.9,0.6-11.9c0-0.3,0.1-0.7,0-1c0-0.2-0.1-0.3-0.1-0.5l-8.5,0c-0.5,0-1,0.1-1.5,0.1c-0.3,0-0.6,0-0.9,0.1
			c-0.5,0.2-0.8,0.1-0.9-0.2l-8.6,0c-0.1,0.2-0.2,0.5-0.3,0.7c-0.2,1-0.2,1.9-0.3,2.9c0,0.2-0.4,0.4-0.6,0.4c-2.4,0-4.9-0.1-7.3,0.1
			c-1.4,0.1-1.7-0.6-1.6-1.7c0-1.2,0.1-1.9-0.1-2.3l-8.5,0c-0.3,0.1-0.6,0.2-0.9,0.2c-0.4,0-0.8,0-1.1,0c0,0,0,0,0,0
			c-0.4,0-0.8,0-1.1,0c-1.3,0-2.6-0.1-4-0.1c-0.2,0-0.4,0-0.5-0.1l-1.6,0c1,1.4,1.2,4.1,0.4,5.6c-0.4,0.7-0.6,1.5-0.9,2.2
			c0,0.1,0.1,0.3,0.2,0.4c-0.4-0.1-0.9-0.1-1.3-0.2c0,0,0-0.3,0-0.5c0-1.2,0.7-2.3,0.9-3.5c0.1-0.4,0.1-0.8,0.1-1.2
			c-0.1-1.1-0.6-1.9-1.1-2.8l-0.2,0C657.7,257.3,657.4,257.5,657.4,257.7z M705.5,260.2c0.1,0.1,0.3,0.3,0.3,0.4
			c-0.1,0.4-0.3,0.7-0.6,1.4c-0.3-0.5-0.5-0.7-0.5-0.8C704.9,260.8,705.2,260.5,705.5,260.2z M689.6,261.2c0.8-0.1,1.7-0.2,2.5-0.2
			c0.3,0,0.7,0.1,1,0.2c-0.4,0.2-0.7,0.4-0.9,0.4c-1-0.1-1.9-0.1-2.7-0.2c-0.1,0-0.2-0.1-0.3-0.2
			C689.4,261.3,689.5,261.2,689.6,261.2z M673.1,260.8c0.6,0.1,1.1,0.1,1.7,0.3c0.5,0.2,1.1,0.4,1.6,0.7c0,0.1,0,0.2,0,0.3
			c-1.2-0.2-2.3-0.3-3.5-0.5c-0.2,0-0.4-0.3-0.5-0.5C672.6,260.9,672.8,260.7,673.1,260.8z M666.8,260.7c0.4,0.1,1,0.2,1.5,0.4
			c-0.6,0-1.2,0.1-1.7,0.1c-0.3,0-0.5-0.1-0.8-0.2C666.1,260.9,666.4,260.8,666.8,260.7z M663.2,264.3c1-1.2,2.3-0.8,3.6-0.7
			c2.2,0.1,4.5,0.2,6.7,0.3c0,0,0.1,0,0.1,0c0.1-0.1,0.2-0.2,0.3-0.3c-2.2-0.1-4.4-0.1-6.6-0.2c-0.1,0-0.2,0-0.3-0.1
			c-0.1,0-0.2-0.1-0.3-0.1h0l0,0c0.1,0,0.2,0,0.3,0c0.1,0,0.2,0,0.3,0c3.2,0.1,6.5,0.3,9.7,0.3c4.4,0.1,8.8,0,13.2,0
			c3.6,0,7.3,0,10.5,0c-8.2,0.1-16.8,0.1-25.5,0.2c1,0.2,1.9,0.4,2.9,0.5c0.5,0.1,0.9,0,1.4,0.2c5.7,0,11.4,0,17.1,0
			c1.8,0,3.6,0.3,5.4,0.5c0.2,0,0.5,0.3,0.7,0.5c-0.3,0.1-0.5,0.2-0.8,0.2c-5.5,0.1-10.9,0.2-16.4,0.2c-6.2,0-12.4,0-18.6,0
			c-1.1,0-2.2-0.1-3.3-0.2c-0.3,0-0.8-0.2-0.8-0.4C662.8,264.9,663,264.5,663.2,264.3z"/>
		<path fill="#6F3234" d="M661.6,271.1c1-0.1,2-0.2,3-0.4c0.2,0,0.4-0.1,0.6-0.1c0.7-0.1,1.4-0.2,2.1-0.3c0.1,0,0.2-0.1,0.3-0.1l0,0
			c0-0.1,0.1-0.2,0.1-0.3c0,0,0,0,0,0c0.8,0,1.7,0,2.5,0c0,0,0-0.1,0-0.1c-1.4-0.1-2.7-0.2-4.1-0.3c0.4-0.2,0.8-0.1,1.1-0.3
			c1.6-0.7,3.3-1.4,4.9-2.1c0.2-0.1,0.4-0.2,0.5-0.4c0.2-0.2,0.3-0.3,0.5-0.5h0c-1.2,0-2.4-0.1-3.6-0.1c-0.7,0-1.3,0.2-2,0.4
			c-2,0.6-3.9,1.2-5.8,1.9c-0.5,0.2-1,0.5-1.2,0.9c-0.3,0.4-0.3,1-0.4,1.6C660.7,271,661.1,271.2,661.6,271.1z"/>
		<path fill="#6F3234" d="M706.9,266.5c0.1,1.2,0,2.4,0.1,3.6c0,0.2,0.2,0.3,0.4,0.5c0.1,0.1,0.1,0.1,0.2,0.2
			c0.1-1.7,0.2-3.4,0.3-5.1c0-0.1-0.3-0.4-0.4-0.4c-0.5,0-1,0.1-1.5,0.1C706.3,265.8,706.9,266.1,706.9,266.5z"/>
		<path fill="#5A5858" d="M676.5,274.4c-0.2,0-0.5,0.1-0.7,0.2c0.2,0.1,0.5,0.2,0.7,0.2c2.6,0,5.2-0.1,7.8-0.1c2,0,4,0,5.8,0
			c-0.4-0.1-1-0.2-1.6-0.2C684.5,274.4,680.5,274.4,676.5,274.4z"/>
		<path fill="#888888" d="M673.5,274.3C673.5,274.3,673.5,274.3,673.5,274.3c0.4,0.1,0.7,0.1,1,0.1c0,0,0,0,0-0.1
			C674.2,274.3,673.8,274.3,673.5,274.3z"/>
		<path fill="#2C2120" d="M677.9,259.5c0,1.1,0.2,1.8,1.6,1.7c2.4-0.2,4.9,0,7.3-0.1c0.2,0,0.6-0.2,0.6-0.4c0.1-1,0.2-1.9,0.3-2.9
			c0-0.2,0.1-0.5,0.3-0.7l-10.2,0C678,257.6,678,258.3,677.9,259.5z"/>
		<path fill="#2C2120" d="M697.5,257.4c0.3-0.1,0.6-0.1,0.9-0.1c0.5,0,1-0.1,1.5-0.1l-3.3,0C696.7,257.5,697,257.6,697.5,257.4z"/>
		<path fill="#2C2120" d="M666.2,257.3c0.4,0,0.8,0,1.1,0c0,0,0,0,0,0c0.4,0,0.8,0,1.1,0c0.3,0,0.6-0.1,0.9-0.2l-3.5,0
			C666,257.2,666.1,257.3,666.2,257.3z"/>
		<path fill="#6F3234" d="M662.2,257.1l-0.5,0C661.9,257.2,662.1,257.2,662.2,257.1C662.2,257.2,662.2,257.2,662.2,257.1z"/>
		<path fill="#D0565D" d="M663.6,265.5c1.1,0.1,2.2,0.2,3.3,0.2c6.2,0,12.4,0,18.6,0c5.5,0,10.9-0.1,16.4-0.2c0.3,0,0.5-0.2,0.8-0.2
			c-0.2-0.2-0.4-0.4-0.7-0.5c-1.8-0.2-3.6-0.5-5.4-0.5c-5.7-0.1-11.4,0-17.1,0c-0.5-0.2-1-0.1-1.4-0.2c-1-0.1-2-0.3-2.9-0.5
			c-0.4,0-0.9,0-1.3,0l0,0c-0.1,0.1-0.2,0.2-0.3,0.3c0,0-0.1,0-0.1,0c-2.2-0.1-4.5-0.1-6.7-0.3c-1.3-0.1-2.6-0.5-3.6,0.7
			c-0.2,0.2-0.4,0.6-0.3,0.9C662.9,265.4,663.3,265.5,663.6,265.5z"/>
		<path fill="#2C2120" d="M675.2,263.6c8.7-0.1,17.3-0.2,25.5-0.2c-3.2,0-6.8,0-10.5,0c-4.4,0-8.8,0.1-13.2,0
			c-3.2,0-6.5-0.2-9.7-0.3c-0.1,0-0.2,0-0.3,0c-0.1,0-0.2,0-0.3,0h0c0.1,0,0.2,0.1,0.3,0.1c0.1,0,0.2,0.1,0.3,0.1
			c2.2,0.1,4.4,0.2,6.6,0.2C674.3,263.6,674.8,263.6,675.2,263.6z"/>
		<path fill="#D0565D" d="M672.8,261.5c1.1,0.2,2.3,0.4,3.5,0.5c0-0.1,0-0.2,0-0.3c-0.5-0.2-1-0.5-1.6-0.7c-0.5-0.2-1.1-0.3-1.7-0.3
			c-0.2,0-0.5,0.1-0.8,0.2C672.5,261.1,672.6,261.4,672.8,261.5z"/>
		<path fill="#D0565D" d="M692.2,261.7c0.2-0.1,0.5-0.3,0.9-0.4c-0.3-0.1-0.7-0.2-1-0.2c-0.8,0-1.7,0.1-2.5,0.2
			c-0.1,0-0.2,0.1-0.3,0.2c0.1,0.1,0.2,0.2,0.3,0.2C690.4,261.6,691.2,261.6,692.2,261.7z"/>
		<path fill="#5A5858" d="M666.2,257.3c-0.1,0-0.3-0.1-0.4-0.2l-3.6,0c0,0,0,0,0,0.1C663.6,257.2,664.9,257.3,666.2,257.3z"/>
		<path fill="#6F3234" d="M668.4,261.1c-0.5-0.1-1.1-0.3-1.5-0.4c-0.4,0.1-0.7,0.2-1,0.3c0.3,0.1,0.5,0.2,0.8,0.2
			C667.2,261.2,667.8,261.1,668.4,261.1z"/>
		<path fill="#D0565D" d="M705.7,260.6c0-0.1-0.2-0.3-0.3-0.4c-0.3,0.3-0.6,0.7-0.8,1c0,0.1,0.2,0.3,0.5,0.8
			C705.4,261.3,705.6,260.9,705.7,260.6z"/>
	</g>
</g>
<g id="Ground22">
	<g id="l_rear_1_">
		<g>
			<g>
				<path fill="#749383" d="M231.6,241.6c3.1,0,5.9,0.3,8.5,0.5c-2.6-0.3-5.4-0.7-8.6-0.8c-1.6-0.1-3.2-0.1-5,0l-2.4,0.2
					c-0.5,0-1.1,0.1-1.6,0.1c-2.3,0.1-4.8,0.2-7.6,0.2l-2.2,0.1c-0.7,0-1.4,0.1-2.3,0.1c-1.7,0.1-3.2,0.3-4.6,0.5
					c-2.8,0.4-5.2,0.8-7.1,0.9c-1.8,0.1-4.1,0-6.9-0.1c-1.4-0.1-3-0.1-4.6-0.1l-0.3,0l-0.1,0l0,0c-0.2-6.8,0.2,9.3,0.2,7.6l0,0l0,0
					c0,0,0-0.1,0-0.1c0-0.1,0-0.3,0.1-0.4c0,0,0.1-0.2,0.1-0.3c0-0.1,0.1-0.3,0.1-0.4l0.1-0.2l0-0.1l0.1-0.2
					c0.1-0.2,0.2-0.5,0.3-0.7c0.1-0.2,0.2-0.4,0.3-0.6l0.5-1c0.2-0.4,0.4-0.7,0.6-1.1l0.3-0.5c-0.6,0.9,0.8-1.3,0.7-1.1l0,0l0,0l0,0
					l-0.1-0.1c-1.9-1.4-3.8-2.7-5.9-3.5c-1.1-0.4-2.2-0.7-3.3-0.9c-0.6-0.1-1.1-0.1-1.7-0.2l-1.7-0.1c-3.4,0-6.8,0-10.2,0
					c-2.9,0-5.8,0-8.7,0c-3,0-5.9,0-8.8,0c-3.3,0-6.4,0.1-9.4,0.2c-6.1,0.3-11.8,0.7-17.3,0.9c-2.7,0.1-5.4,0.1-7.9,0.1l-1.9,0
					l-0.9,0l-0.4,0l-0.2,0l-0.4,0c-2.6,0-4.9,0.2-6.9,0.6c-1.9,0.2-4.3,0.6-6,0.8c-0.9,0.1-1.5,0.1-2,0.1c-0.5,0-0.8-0.1-0.9-0.2
					c-0.1,0-0.1,0-0.1,0c0,0,0,0,0,0l0,0c0,0,0,0,0,0.1l0,0.1l0,0c0,0.1,0-0.4,0-0.2l-0.2,0c-0.5,0-1-0.1-1.5-0.1
					c-1-0.1-2.2-0.2-3.4-0.4c-2.5-0.3-5.3-0.7-8.7-0.9c-2.9-0.2-5.8-0.3-8.7-0.5c-2.8-0.2-5.7-0.4-8.9-0.5c-1.6-0.1-3.2-0.1-4.8-0.2
					l-2.5,0l-2.4,0c-2.9,0.1-5.8,0.1-8.7,0.2c-0.7,0-1.4,0-2.1,0c-0.4,0-0.8,0-1.3,0c-1,0-2.1-0.1-3.3-0.2c-2.5-0.2-5.6-0.5-9.1-0.5
					c-0.3,0-0.7,0-1,0c-0.3,0-0.6,0-1,0c-0.6,0-1.2,0.1-1.9,0.1c-1.2,0.1-2.4,0.2-3.5,0.4c-2.2,0.3-4.2,0.8-5.8,1.2
					c-3.3,0.9-5.3,1.8-5.3,1.8c-1.3,0.3-2.6,0.8-3.3,1.3c-0.3,0.3-0.4,0.5-0.4,0.8c0,0.2,0.3,0.5,1,0.7c5.2,0.6,18.2,1.1,18.2,2.6
					c0,0.4-2.6,0.2-5.2,0.1c0,1.4-7.9,3.9-10.6,3.8c-0.8,0.2-2.9,0.5-5.3,0.7c-2.5,0.2-5.5,0.3-8.2,0.3c-0.9,0-1.8-0.1-2.6-0.3
					c-0.8-0.1-1.5-0.3-2.1-0.4c-1.2-0.2-2.1-0.1-2.5,0c-2.1,0-2.1,0.6-0.6,1.5c0.4,0.3,0.7,0.4,1.1,0.7c0.2,0.1,0.3,0.3,0.5,0.4
					c0.2,0.2,0.4,0.3,0.6,0.5c0.5,0.4,1,0.8,1.9,1.3c0.9,0.5,1.9,1.1,3.1,1.4c0.8,0.3,1.6,0.6,2.4,0.9c0.8,0.3,1.6,0.6,2.5,0.9
					c1.7,0.6,3.6,1.1,5.5,1.5c0.8,0.2,1.7,0.4,2.5,0.5c0.8,0.2,1.6,0.3,2.3,0.5c1.5,0.3,2.9,0.5,4.1,0.7c5.2,0.9-0.1,1.8-0.1,2.8
					c2.6-0.1,4.6,0.2,6.6,0.5c1,0.1,2,0.3,3,0.4c0.5,0,1.1,0.1,1.7,0.1c0.3,0,0.6,0,0.9,0c0.2,0,0.3,0,0.5,0c0.2,0,0.3,0,0.4,0
					c0,0.1,0.7,0.2,1.9,0.4c1.3,0.2,3.3,0.5,6,0.8c1.4,0.2,2.9,0.3,4.6,0.4l1.3,0l1.2,0c0.6,0,1.3,0,1.9,0c2.6,0,5,0,7,0
					c0,0,0.7-0.1,2.3-0.2c1.5-0.1,3.7-0.2,7.5,0c2.5,0.1,2.5-0.2,2.6-0.6c0,0.4,0,0.4,0,0.7c2.6-0.6,7.9,0.5,10.7,0.2
					c0,0.4,0,0.4,0,0.7c0.7-0.1,1.4-0.1,2.1-0.1c0.5,0,1,0,1.6,0c1.1,0,2.3,0.1,3.5,0.2c2.5,0.2,5.2,0.6,8.2,0.6c0,0.4,0,0.4,0,0.7
					c1.6,0.1,3.1,0.1,4.4,0.1c1.8,0,2.9-0.1,3,0.1c0,0.4,0,0.4,0.1,0.7c1.2,0,2.5-0.2,3.8-0.5c1.2-0.3,2.4-0.6,3.3-0.9
					c1.8-0.5,2.9-0.8,3-0.5c-0.1-0.3-0.1-0.3-0.2-0.7c1.1-0.3,1.9-0.5,2.4-0.5c0.2,0,0.4,0,0.5,0c0.1,0,0.1,0,0.1,0l0.6,0
					c2.7,0,5.1,0,7.4-0.1c4.6-0.1,8.6-0.3,12.5-0.5c3.4-0.1,6.9-0.2,10.4-0.3c1.7-0.1,3.4-0.1,5.1-0.1c1.7,0,3.4,0,5.2,0
					c3.9,0,7.9-0.1,12-0.2c2-0.1,4-0.1,6.1-0.2l3.1-0.1l1.3,0l-0.1,0c0,0,0.1-0.1,0.1-0.1c0,0,0,0,0,0c0,0,0,0,0,0l0.3,0.2l0.7,0.4
					l0.9,0.5c0.3,0.2,0.6,0.3,1.1,0.5c0.4,0.2,0.8,0.4,1.2,0.5c0.4,0.2,1,0.4,1.5,0.5c1,0.3,2.2,0.6,3.4,0.7
					c0.6,0.1,1.3,0.1,1.9,0.1l1,0l0.2,0l0.1,0l0,0c0,0-0.2,0-0.1,0l0,0l0.1,0l0.7,0c2.7-0.2,7.5,0.2,13.3-0.5c1.8-0.2,3.3-0.6,4-0.9
					c0.7-0.4,0.7-0.7-0.9-0.9c3-0.4,5.5-0.9,7.4-1.1c0.5-0.1,0.8-0.1,1.1-0.2c0.4-0.1,0.7-0.1,0.9-0.2c0.5-0.1,0.8-0.3,1.1-0.4
					c0.6-0.3,1.1-0.6,3.8-0.7l4.2-0.4l2.3-0.3l2.1-0.3c1.6-0.3,3.5-0.4,5.8-0.3c2.3,0.1,4.8,0.3,7.6,0.4c2.8,0.2,6,0.3,9.5,0
					c0.8,0,1.8-0.2,2.6-0.3l1.9-0.2c1.2-0.2,2.4-0.3,3.6-0.4c2.4-0.2,4.9-0.4,7.4-0.6c5-0.3,10.1-0.4,15.4-0.5l8-0.2l4.1-0.2
					l3.8-0.2c2.2-0.1,4.7,0,7.4-0.1c2.7,0,5.7,0,9.1-0.4c0.8-0.1,1.7-0.2,2.6-0.4l2.1-0.4c1-0.2,1.9-0.3,2.9-0.4
					c1-0.1,1.9-0.2,3-0.2l3.7,0l3.9,0l1.9,0l1.5,0c1.1,0,2.2,0.1,3.6,0.2c1.4,0.1,2.9,0.1,4.5,0.1c-1.6-0.1-3.1-0.2-4.4-0.4
					c-1.2-0.1-2.3-0.3-3.4-0.4c-1.7-0.2-4.2-0.3-6.4-0.4c-1.1,0-2.3-0.1-3.4-0.1c-0.5,0-1,0-1.5,0c-0.5,0-0.9,0-1.4,0
					c-0.9,0-1.8,0.1-2.8,0.3c-0.5,0.1-0.9,0.2-1.4,0.2c-0.6,0.1-1.1,0.3-1.7,0.4c0-0.2-0.1-0.4-0.6-0.6c-0.5-0.1-1.4-0.2-3,0
					c-4.8,0.4-9.2,0.3-13,0.3c-1,0-1.9,0-2.8,0c-0.9,0-1.6,0.1-2.7,0.1c-2.1,0.1-4.1,0.2-6,0.3c-7.7,0.3-14.1,0.2-18-0.3
					c-1.3-0.1-2.6-0.4-4.5-0.6c-1.9-0.2-4.5-0.3-8.2,0c2.5-0.2,5-0.4,7.5-0.6c0-0.4-0.1-1.1-0.1-1.1c-2.6,0.1-5.2,0.2-8,0.3
					c-1.4,0.1-2.8,0.2-4.1,0.3c-0.8,0.1-1.6,0.1-2.4,0.2c-0.9,0.1-1.7,0.1-2.5,0.1c-3.3,0-6.5-0.3-9.4-0.6c-2.9-0.3-5.5-0.6-7.9-0.8
					c0,0,0-0.7,0-1.1c0,0-0.3,0-0.8,0c-0.4,0-1,0-1.6,0c-1.2,0-2.3,0.2-2.3,0.2c-0.6-0.3-0.8-0.5-0.5-0.8c0.3-0.2,0.9-0.5,1.9-0.8
					c2-0.5,5.4-0.6,9.4-0.4c4,0.2,8.8,0.6,13.5,0.1c1.2-0.1,2.2-0.3,3.3-0.4c1.1-0.1,2.1-0.3,3.1-0.4c2-0.2,3.9-0.4,5.5-0.6
					c0-0.4-0.1-1.1-0.1-1.4c0,0-1.3,0.1-2.6,0.2c-1.3,0.1-2.6,0.2-2.6,0.2l-0.1-0.7c7.8-0.7,15-0.9,22.2-1.1
					c3.6-0.1,7.2-0.2,10.8-0.4c1.8-0.1,3.7-0.2,5.6-0.3c1.9-0.1,3.8-0.1,5.8-0.1c-1.3,0-3.3,0-5.3,0.1c-2,0.1-3.9,0.2-5.2,0.3
					c0-0.4,0-0.7-2.6-0.6c2.6-0.1,5.4-0.3,8.2-0.4c2.9-0.1,5.9,0,8.8,0c2.9,0,5.8-0.2,8.5-0.7c0.7-0.2,1.4-0.3,2.1-0.5
					c0.7-0.2,1.4-0.3,2.1-0.4c1.4-0.2,2.8-0.4,4.1-0.6c1.3-0.2,1.3-0.6,0-0.9c-0.7-0.1-1.7-0.3-3.1-0.3c-0.7,0-1.5,0-2.4,0.1
					c-0.4,0-0.9,0.1-1.4,0.1c-0.5,0.1-0.9,0.1-1.4,0.2c-3.4,0.6-6.6,0.6-9.8,0.7c-1.6,0-3.3,0-5,0c-0.9,0-1.8,0-2.7,0.1
					c-0.5,0-1,0-1.5,0.1c-0.5,0-0.9,0.1-1.4,0.1l0-0.7c1.2-0.1,2.9-0.2,4.5-0.2c1.6,0,3.3,0,4.9,0c3.2,0,6.4,0,8.7-0.5
					c1.1-0.3,0-0.4-1.2-0.6c-1.2-0.2-2.4-0.4-1.2-0.6c1.2-0.1,2.3-0.2,3.4-0.4c0.3,0,0.5-0.1,0.8-0.2l0.8-0.2
					c0.7-0.2,1.4-0.4,2.1-0.6c-0.5,0.1-1.1,0.2-1.7,0.3c-0.5,0.1-1,0.2-1.4,0.3c-0.8,0.2-1.7,0.3-2.7,0.4c-1.9,0.2-4.1,0.3-6.3,0.3
					c-2.3,0-4.7,0-6.9,0.1c-1.2,0-2.3,0.1-3.4,0.1c-1,0-2,0.1-3,0.1c-2.6-0.2-5.2-0.5-5.2-1.2c-6.4,0.4-12.4,0.4-17.7,0.2
					c-5.4-0.2-10.2-0.6-14.4-1c-0.4-0.1-0.9-0.1-1.6,0c-0.3,0-0.7,0-1.1,0.1c-0.2,0-0.4,0-0.6,0c-0.1,0-0.3,0-0.4,0
					c-1.2,0.1-2.7,0.1-4.6,0.1C241.7,242.2,236.3,241.6,231.6,241.6z"/>
			</g>
		</g>
	</g>
	<g id="r_front_1_">
		<g>
			<g>
				<path fill="#668071" d="M936,307.7c-1.2,0.2-2.3,0.5-3.4,0.7c2.5-0.3,5-0.6,7.5-1c1.2-0.2,2.4-0.3,3.6-0.5l1.8-0.3l1.7-0.1
					l3.4-0.3l3.6-0.3c2.4-0.2,4.9-0.3,7.3-0.4c9.8-0.4,19.6-0.4,28.8,0.6c1.2,0.3,3.5,0.9,4.6,1.3c9.2,0.8,20.7,0.5,29.9-0.1
					c4.6-0.3,8.1-3.9,8.1-3.9c1.2-0.6,2.4-2,1.2-2.7c-2.3-0.4-8.1-0.5-8.1-1.9c0-0.3,1.2-0.3,2.3-0.3c0-1.4,3.6-4,4.8-4
					c1.2-0.7,8.3-2.5,9.5-3.1c1.8-0.4,0.1-2.1-2.6-3.7c-2.8-1.7-6.6-3.3-8.9-3.9c-2.4-0.7,0-1.7,0.1-2.7c-2.4,0.3-3.6-0.8-5.9-0.5
					c0-0.3-7.1-0.8-10.7-0.8c0,0-1.2,0.3-4.7,0.3c-1.2,0-1.2,0.3-1.2,0.7c0-0.3,0-0.3,0-0.7c-1.2,0.7-3.6,0-4.7,0.4
					c0-0.3,0-0.3,0-0.7c-2.4,0.7-4.7,0-7.1,0.4c0-0.3,0-0.3,0-0.7c-1.2,0-2.4,0-2.4-0.3c0-0.3,0-0.3,0-0.7c-1.2-0.3-3.6,0.4-3.6-0.3
					c0,0.3,0,0.3,0,0.7c-4.8,0.1-8.4-0.1-12-0.3c-4.8-0.5-10.2-0.4-15.8,0.1c-1.4,0.1-2.8,0.3-4.2,0.4c-1.4,0.2-2.8,0.4-4.3,0.6
					c-1.4,0.2-2.8,0.4-4.2,0.7c-0.7,0.1-1.4,0.2-2.1,0.4c-0.7,0.1-1.4,0.2-2.1,0.4c-1.3,0.2-2.5,1-1.1,1.5c-1.3,0.2-2.6,0.3-3.9,0.6
					c-2.5,0.5-1.1,1.3-3.5,1.7c-18.1,5.4-36.5,7.4-54.5,11.2c4.6-0.3,8.1-0.2,12.6-1.3c0.1,0.3,0.2,1,1.3,0.8
					c6.9-0.8,14.7-3,18.4-2.4c1.2,0.1,2.5,0.9,6,0.2l-3.4,0.7c0.1,0.3,0.2,1,0.2,1c4.6-0.6,10.5-1.4,15.1-2c0,0,0.1,0.7,0.2,1
					l2.3-0.5c2.8,1.9-9.9,4.1-15.6,5.6c0.1,0.3,0.2,1,0.3,1.3l2.3-0.5l0.1,0.7c-6.9,1.4-12.6,2.5-19.6,3.7c1.2-0.2,3.5-0.6,4.6-0.8
					c0.1,0.3,0.1,0.7,1.3,0.5c-4.6,0.9-10.4,1.6-15,3c-1.1,0.5,0.2,1.4,3.8,1.1c3.5-0.6,5.8-1,9.3-1.7l0.1,0.7
					c-2.3,0.4-5.8,0.7-8.1,1.5c-1.1,0.5,2.5,0.6,1.4,1.1c-1.2,0.2-2.3,0.4-3.4,0.9c3.5-0.6,8.1-1.8,11.6-2.1
					c1.2,0.1,2.4,0.2,2.6,0.9c5.7-1.4,10.5-1.3,14.3-0.3C926.9,309.9,932.6,308.4,936,307.7z"/>
			</g>
		</g>
	</g>
	<g id="r_front_2_">
		<g>
			<g>
				<path fill="#7C9385" d="M867.6,265.7c-1.4,0-2.8,0.1-4.1,0.1c5.9,0.2,11.8,0.2,17.9,0c3-0.1,6.1-0.2,9.2-0.4
					c1.6-0.1,3.1-0.2,4.6-0.4l1.2-0.1l1.1-0.1l2.1-0.1l2.1-0.1l2.1-0.1c1.4-0.1,2.8-0.2,4.3-0.2c2.9-0.1,5.7-0.2,8.5-0.2
					c5.7,0,11.2,0.1,16.7,0.5c1.4,0.3,4.1,0.8,5.4,1c10.8,0.6,24.4,0.3,35.2-0.2c5.4-0.2,9.5-3.3,9.5-3.3c1.4-0.5,2.7-1.6,1.4-2.2
					c-2.7-0.3-9.5-0.4-9.5-1.6c0-0.3,1.4-0.3,2.7-0.3c0-1.1,4.1-3.3,5.5-3.3c1.4-0.6,9.6-2.1,11-2.6c4.2-0.7-8.1-5.4-13.6-6.3
					c-2.7-0.6,0-1.4,0-2.3c-2.8,0.2-4.1-0.6-6.9-0.4c0-0.3-8.3-0.6-12.4-0.6c0,0-1.4,0.3-5.5,0.3c-1.4,0-1.4,0.3-1.4,0.6
					c0-0.3,0-0.3,0-0.6c-1.4,0.6-4.1,0-5.5,0.3c0-0.3,0-0.3,0-0.6c-2.7,0.6-5.5,0.1-8.3,0.4c0-0.3,0-0.3,0-0.6c-1.4,0-2.8,0-2.8-0.2
					c0-0.3,0-0.3,0-0.6c-1.4-0.3-4.1,0.4-4.2-0.2c0,0.3,0,0.3,0,0.6c-5.5,0.1-9.7,0-13.9-0.1c-5.6-0.3-11.9-0.2-18.4,0.4
					c-0.8,0.1-1.6,0.2-2.5,0.2l-2.6,0.3l-2.6,0.3l-2.2,0.3c-3,0.5-5.9,0.8-8.8,1.2c-1.3,0.1-2.6,0.7-1.2,1.2c-1.3,0.1-2.7,0.2-4,0.2
					c-2.7,0.1-1.3,0.9-4,1c-10.7,1.2-21.7,1.4-32.6,1.7c-5.5,0.1-11,0.2-16.5,0.5c-5.6,0.3-11.1,0.6-16.9,1.4
					c5.9-0.3,10,0.1,15.6-0.4c0,0.3,0,0.9,1.4,0.8c8.3-0.1,17.9-0.9,22,0.2c1.4,0.2,2.8,1.1,6.9,1l-4.1,0.1c0,0.3,0,0.9,0,0.9
					c5.5,0.1,12.3,0.2,17.8,0.3c0,0,0,0.6,0,0.9l2.7-0.1c2.8,1.9-12.2,2.2-19.1,2.6c0,0.3,0,0.9,0,1.1l2.7-0.1l0,0.6
					c-8.2,0.2-15,0.4-23.2,0.7c1.4,0,4.1-0.1,5.5-0.2c0,0.3,0,0.6,1.4,0.5c-5.5,0.2-12.3,0.1-17.7,1c-1.3,0.4,0.1,1.1,4.1,1.2
					c4.1-0.2,6.8-0.3,10.9-0.4l0,0.6c-2.7,0.1-6.8-0.1-9.5,0.3c-1.3,0.3,2.8,0.7,1.4,1.1c-1.4,0.1-2.7,0.1-4.1,0.5
					c4.1-0.2,9.5-0.7,13.6-0.5c1.4,0.2,2.7,0.5,2.8,1.1c6.8-0.5,12.3,0.2,16.5,1.5C856.6,266.3,863.5,265.9,867.6,265.7z"/>
			</g>
		</g>
	</g>
	<g id="l_front_1_">
		<g>
			<g>
				<path fill="#668071" d="M121.3,286.1c1.6-0.1,3.3-0.2,4.9-0.4c-14,0.2-28.4,0.6-42.6,0.4c-7.1-0.1-14.1-0.3-21.1-0.7
					c-3.5-0.2-6.9-0.4-10.3-0.7c-1.7-0.1-3.4-0.3-5-0.5c-0.8-0.1-1.6-0.2-2.4-0.3c-0.8-0.1-1.7-0.2-2.3-0.3
					c-1.4-0.5-4.3-1.4-5.7-1.9c-6.1-1.2-13.4-2.5-21-3.6c-7.5-1-15.3-1.8-22.5-2.1c-0.9,0-1.8,0-2.6,0.1c-0.8,0.1-1.7,0.2-2.5,0.4
					c-1.6,0.3-2.9,0.7-4.1,1.2c-2.3,0.9-3.7,1.8-3.7,1.8c-1.9,0.7-3.7,2.1-1.8,2.7c0.9,0,2.1,0.1,3.5,0.2c1.3,0.1,2.8,0.2,4.1,0.4
					c2.6,0.4,4.7,0.8,4.7,1.5c0,0.3-1.7,0.2-3.5,0.1c0,0.7-1.4,1.6-2.9,2.4c-1.5,0.8-3.2,1.5-4.1,1.4c-0.4,0.1-1.4,0.4-2.6,0.8
					c-1.2,0.3-2.7,0.7-4.1,1.2c-2.9,0.8-5.5,2.1-6.3,2.5c-1.2,0.5-1.1,1-0.1,1.5c0.9,0.5,2.5,1,4.3,1.5c3.7,1.1,8.7,2.6,11.8,3.3
					c3.1,0.8-0.1,1.7-0.1,2.7c1.5-0.1,2.7,0.1,3.8,0.4c1.1,0.2,2.3,0.5,3.9,0.5c0,0.2,2.3,0.5,5.3,1c1.5,0.2,3.1,0.5,4.7,0.7
					c1.6,0.2,3.1,0.4,4.3,0.6c0,0,0.4,0,1.4,0c1,0,2.7,0.2,5.1,0.6c1.6,0.2,1.7-0.1,1.7-0.4c0,0.3,0,0.3-0.1,0.7
					c1.8-0.4,4.9,0.7,6.7,0.6c0,0.3,0,0.3-0.1,0.7c3.4-0.2,6.7,1,10.2,1.1c0,0.3,0,0.3-0.1,0.7c1.7,0.2,3.5,0.4,3.4,0.8
					c0,0.3,0,0.3-0.1,0.7c0.9,0.3,2.2,0.3,3.4,0.4c0.5,0,1.1,0.1,1.5,0.1c0.4,0.1,0.6,0.2,0.6,0.3c0-0.3,0-0.3,0.1-0.7
					c1,0.1,1.9,0.1,2.9,0.2c0.8,0,1.6,0.1,2.4,0.1c1.5,0.1,3,0.2,4.4,0.3c2.7,0.2,5.3,0.4,7.8,0.6c13.5,1.6,30.6,0.9,45.9-0.4
					c1.7-0.1,3.4-0.8,1.6-1.4c1.7-0.1,3.4-0.2,5.1-0.2c3.4-0.2,1.6-1.1,5-1.3c6.7-0.8,13.6-1.5,20.2-2.2c1.6-0.2,3.3-0.3,4.9-0.4
					l5-0.3c3.4-0.2,6.9-0.5,10.3-0.8c13.8-1.2,27.8-3.2,41.3-7.5c-6.9,1.5-12.2,2-19,3.6c-0.1-0.3-0.2-1-1.9-0.7
					c-10.3,1.5-22.3,3.2-27.5,2.2c-0.9-0.1-1.7-0.4-3-0.6c-0.6-0.1-1.4-0.2-2.3-0.2c-0.9,0-1.9-0.1-3.1,0c1.7-0.1,3.3-0.2,5-0.3
					c0-0.3-0.1-1-0.1-1c-1.7,0-3.4,0-5.3,0.1c-1.8,0.1-3.7,0.1-5.5,0.2c-3.8,0.1-7.6,0.3-10.9,0.3c0,0,0-0.7-0.1-1l-3.3,0.2
					c-1.7-1.1,2-1.8,7.2-2.5c2.6-0.3,5.6-0.6,8.4-0.9c1.4-0.1,2.8-0.3,4.1-0.4c1.3-0.1,2.5-0.2,3.5-0.3c0-0.3-0.1-1-0.1-1.4
					l-3.3,0.2l0-0.7c10-0.6,18.3-1.2,28.2-2.6c-1.7,0.2-5,0.7-6.6,0.8c0-0.3-0.1-0.7-1.7-0.5c3.3-0.4,7-0.7,10.7-1.3
					c3.7-0.6,7.4-1.3,10.5-2.3c1.5-0.7-0.3-1.3-5.2-0.8c-4.9,0.9-8.1,1.3-13,1.9l-0.1-0.7c3.3-0.4,8.2-0.8,11.4-1.7
					c1.6-0.6-3.4-0.5-1.8-1.1c1.6-0.3,3.2-0.5,4.8-1.2c-4.8,0.9-11.2,2.2-16.1,2.4c-1.7-0.1-3.3-0.3-3.4-1c-4,0.6-7.7,0.7-11,0.5
					c-1.7-0.1-3.2-0.3-4.7-0.5c-1.5-0.2-2.9-0.6-4.2-0.9c-0.9-0.3-3.4-0.1-6.3,0.1C127.1,285.7,123.8,286,121.3,286.1z"/>
			</g>
		</g>
	</g>
	<g id="front_1_">
		<g>
			<g>
				<path fill="#668071" d="M685.8,310.8c5.4,0.1,10.8,0.1,16.3,0.2c-11.5-0.3-23.1-0.7-35-0.7c-11.9,0-24,0.4-36.1,1.7
					c-5.9,0.6-11.6,1.3-17,1.5c-2.7,0.1-5.3,0.2-7.9,0.1c-1.3-0.1-2.5-0.1-3.7-0.3c-1.3-0.1-2.8-0.3-4.2-0.4
					c-11.2-1.3-22.5-3.4-34.1-5.4c-1.4-0.3-3-0.5-4.5-0.7c-1.5-0.3-3.1-0.5-4.6-0.7c-3.1-0.4-6.1-0.7-9.2-1
					c-6.1-0.6-12.1-0.9-18.1-1c-11.9-0.4-23.6-0.2-34.9-0.2c-5.7,0-11.2-0.1-16.8-0.1c-5.6-0.1-11.2-0.2-16.8-0.3
					c-11.2-0.2-22.2-0.5-33.1-0.7c-2.7-0.2-6.7-0.4-10.7-0.7c-3.9-0.3-7.8-0.6-10.3-0.9c-2.5-0.2-5.1-0.4-7.6-0.6
					c-1.2-0.1-2.7-0.3-3.5-0.4c-1-0.2-2.2-0.4-3.6-0.6c-2.7-0.5-6-1.2-10-1.5c-0.5,0-1-0.1-1.5-0.1c-0.5,0-1.1,0-1.4,0l-2.2,0
					c-1.5,0-3,0-4.5,0c-11.9,0-24.2-0.1-36.4-0.1c-3,0-6.1,0-9.1,0c-2.9,0-5.9,0-8.8-0.1c-5.8-0.1-11.4-0.4-17-0.8
					c-5.6-0.4-10.7-1.1-16.4-2c-5.6-0.8-11.5-1.7-17.5-2.1c-3-0.2-6-0.3-9-0.2c-1.5,0-2.8,0.1-4,0.2c-1.3,0.1-2.5,0.2-3.7,0.4
					c-4.8,0.5-9,1.2-12.4,1.9c-3.5,0.7-6.2,1.4-8.1,1.9c-1.9,0.5-2.9,0.8-2.9,0.8c-5.5,1.2-10.8,3.1-5.3,3.2
					c5.5-0.4,15.1-1.1,23.4-1.2c4.2-0.1,8,0,10.8,0.2c2.9,0.2,4.7,0.5,4.7,0.9c0,0.2-1.4,0.2-3.6,0.2c-2.1,0-4.8,0.1-7.6,0.2
					c0,0.7-4.1,1.8-8.8,2.9c-4.7,1.1-10.1,2.2-12.8,2.5c-1.3,0.3-4.4,0.8-8.2,1.5c-1.9,0.4-4.1,0.7-6.3,1.2
					c-2.2,0.4-4.6,0.9-6.9,1.2c-9.4,1.3-19,1.8-21.7,2.2c-4.1,0.3-4.1,0.8-1.4,1.4c2.6,0.6,7.8,1.5,14.4,2.1
					c3.3,0.3,6.9,0.5,10.8,0.6c3.9,0,7.6-0.1,11.2-0.1c7.3-0.1,14.3-0.2,19.6-0.2c10.6,0.1,0.1,1.7,0.2,2.7
					c5.2-0.5,9.2-0.5,13.1-0.4c1.9,0.1,3.8,0.1,5.8,0.2c1.9,0.1,4,0.2,6.4,0.3c0,0,0.4,0.1,1.3,0.2c0.8,0.1,2.1,0.3,3.6,0.5
					c3.1,0.5,7.4,1.2,12.4,2.1c2.5,0.4,5.2,0.9,8.1,1.3c2.8,0.4,5.7,0.7,8.5,1c5.6,0.6,10.9,0.9,15.2,1c0,0,5.5,0,22.2-0.1
					c5.4,0,5.4-0.3,5.4-0.7c0,0.3,0,0.3,0,0.7c5.4-0.7,16.3,0,21.7-0.3c0,0.3,0,0.3,0,0.7c2.7-0.2,5.4-0.3,8-0.3
					c2.6-0.1,5.4-0.1,8,0c1.6,0.1,3.7,0.4,6.2,0.8c2.5,0.4,5.5,1,8.9,1.2c0,0.3,0,0.3-0.1,0.7c5.8,0.6,11.5,0.8,11.5,1.1
					c0,0.3,0,0.3,0,0.7c2.9,0.3,7.1,0.3,10.6,0.3c3.5,0,6.3,0,6.3,0.3c0-0.3,0-0.3,0-0.7c5.5,0,10.6,0,15.3,0
					c4.8,0.1,9.4,0.1,13.8,0.2c8.8,0.2,16.9,0.3,25.1,0.5c5.4,0.2,11.1,0.3,16.9,0.3c5.7,0,11.6,0,17.5,0c11.8,0,23.7,0.1,35.3,1
					c1.4,0.1,2.9,0.3,4.4,0.4c1.4,0.2,2.9,0.3,4.3,0.5l4.3,0.6l4.6,0.7c6.2,1,12.6,2,19,2.9c3.2,0.4,6.5,0.9,9.7,1.2
					c1.6,0.2,3.3,0.3,4.9,0.5l2.5,0.2l1.2,0.1l1.4,0.1c7.5,0.5,14.5,0,21-0.7c5.7-0.6,10.9-1.9,5.5-1.9c2.7-0.3,5.3-0.6,8-0.9
					c2.6-0.3,5.1-0.5,7.7-0.7c5.2-0.4,6.5-0.7,7.8-1c1.3-0.3,2.6-0.7,7.8-0.8c10.5-0.5,21.2-0.6,32-0.6l16.3,0
					c5.4,0,11.2,0,16.8-0.3c22.6-1,44.2-4.5,65.3-6.5l8-0.7l8.2-0.8l16.2-1.6c5.4-0.5,10.7-1,15.9-1.5c2.6-0.2,5.3-0.4,7.9-0.5
					c2.6-0.2,5.2-0.3,8-0.4c21.9-1,43.4-2.8,64.4-3.1c-21.1-0.3-37.3,0.3-59,1.8c0-0.3,0-1-5.5-0.8c-2,0.1-4,0.2-6.1,0.2
					c-2,0.1-4,0.2-6.1,0.3c-4.1,0.3-8.2,0.6-12.3,1c-8.2,0.8-16.5,1.7-24.3,2.5c-3.9,0.4-7.7,0.7-11.3,1c-3.5,0.3-6.9,0.6-10,0.8
					c-6.2,0.5-11.6,1-15.7,1.1c-2.7,0.2-5.4,0.1-9.5,0.3c-4.1,0.2-9.5,0.5-17.8,1.3c5.5-0.5,10.9-1.1,16.4-1.7c0-0.3-0.1-1-0.1-1
					c-10.8,1.1-23.2,2.2-35.6,2.4c-3.1,0.1-6.3,0-9.3,0c-3-0.1-6.1-0.1-9-0.2c-5.9-0.2-11.7-0.3-17.1-0.5c0,0,0-0.7,0-1l-10.8-0.1
					c-5.4-1.2,6.7-1.8,23.7-1.8c4.2,0,8.8,0,13.4,0c4.7,0,9.4-0.1,14-0.4c9.3-0.5,18.1-1.4,24.8-2.2c0-0.3-0.1-1-0.1-1.4
					c0,0-2.7,0.3-5.4,0.6c-2.7,0.3-5.4,0.5-5.4,0.5l-0.1-0.7c16.2-1.5,30.9-3.6,45.8-5.1c3.7-0.4,7.4-0.7,11.2-1
					c3.7-0.4,7.5-0.7,11.3-1.1c7.6-0.8,15.3-1.6,23.4-2.4c-5.4,0.5-16.2,1.6-21.6,2.2c0-0.3-0.1-0.7-5.5-0.1
					c10.8-1.1,22.9-2.4,35.1-3.3c6.1-0.5,12.2-0.7,18.1-1.1c5.9-0.4,11.7-0.8,17.1-1.3c5.4-0.7-0.1-1.3-16.3-0.8
					c-4.1,0.2-7.8,0.4-11.3,0.5c-3.6,0.2-7,0.4-10.4,0.7c-6.8,0.5-13.6,1.2-21.7,2.1l-0.1-0.7c5.4-0.6,12.2-1.2,19-1.7
					c6.8-0.6,13.7-0.9,19.1-1.3c2.7-0.3,0-0.4-2.7-0.6c-2.8-0.1-5.5-0.2-2.8-0.5c2.8-0.1,5.4-0.2,8.1-0.4c2.7-0.2,5.4-0.4,8.1-0.7
					c-4,0.2-8.4,0.5-13,0.7c-4.6,0.2-9.5,0.6-14.2,1c-9.6,0.8-19,1.8-27.1,2.5c-5.4,0.2-10.8,0.4-10.9-0.3c-3.3,0.4-6.6,0.7-9.8,1
					c-3.2,0.3-6.4,0.6-9.5,0.9c-6.1,0.6-11.9,1.1-17.3,1.6c-10.8,0.9-20.2,1.2-28.1,0.9c-2.7-0.1-10.5,0.4-19.6,0.4
					C704.9,311,694,310.9,685.8,310.8z"/>
			</g>
		</g>
	</g>
</g>
<g id="Windows22">
	<rect x="374.7" y="141.9" fill="#EEE37B" width="27.4" height="64.9"/>
	<rect x="374.5" y="218.5" fill="#EEE37B" width="30.8" height="64.9"/>
	<polygon fill="#847B82" points="460.7,186.2 432.7,186.2 433.4,139.7 461.4,139.7 	"/>
	<rect x="515.6" y="133.6" fill="#EEE37B" width="76.9" height="54.5"/>
	<polygon fill="#EEE37B" points="588.5,275.1 540.9,275.1 540.9,223.3 588.5,223.4 	"/>
</g>
<g id="L_Wing" display="none">
	<g display="inline">
		<polygon fill="#576287" points="773.9,218.6 709.9,146.4 609.4,146 609.4,285.3 624.3,285.3 624.3,240.8 743.3,241.2 743.4,285.3 
			764.4,285.3 764.4,224 773.9,224 		"/>
		<path fill="#566287" d="M414.7,134.8L414.7,134.8h-4.1l0.1-4.7l43-41.3l-77.1-0.4L349.6,151l0.1,3.2l7.1-0.1l-0.4,133.5l58.5,0.3
			h0L414.7,134.8z M379.8,155.5h21.6V194h-21.6V155.5z M403.7,267h-21.6v-36.4h21.6V267z"/>
		<path fill="#3E3E3E" d="M609.4,134.9l7.5-0.1l0.1-4.2l-56.5-59.8l-5.9,6.3l-48.2-51L406.2,130.1l-0.1,4.7l8.2,0v158.4h43.4v-59.5
			h27.5l-0.1,59.5h124.3L609.4,134.9z M456.5,181.7h-19.3v-38h19.3V181.7z M561.8,140.4h22v43.3h-22V140.4z M521.2,140.4h22v43.3
			h-22V140.4z M549.6,272.6h-6.7v-46.2h6.7V272.6z M576.7,272.6H552v-46.2h24.7V272.6z M585.9,272.6h-6.7v-46.2h6.7V272.6z"/>
	</g>
</g>
<g id="r_bush" display="none">
	<path display="inline" fill="#76B944" d="M795.3,279c-0.4,0.1-0.8,0.3-1-0.1c-0.3-0.4,0-0.8,0.2-1.2c0.5-0.7,1.1-1.4,1.4-2.2
		c0.4-0.9,0.4-1.9-0.5-2.6c-0.9-0.7-1.8-0.4-2.6,0.2c-0.7,0.5-1.2,1.2-1.6,1.8c-0.3,0.4-0.6,1-1.1,0.7c-0.5-0.3-0.2-0.9,0.1-1.3
		c0.6-1.2,1.1-2.4,1.5-3.7c0.6-2.3-0.8-4.1-3.1-4.1c-1.5,0-2.8,0.6-4,1.3c-0.3,0.2-0.6,0.5-1,0.2c-0.4-0.3,0-0.7,0.1-1.1
		c0.2-0.7,0.4-1.5,0.6-2.2c0.4-2.2-0.6-4.4-2.3-5.2c-2.2-1-4.7-0.4-6,1.5c-0.5,0.7-0.7,1.5-1.2,2.2c-0.4,0.6-0.2,1.8-1.1,1.8
		c-0.8,0-0.5-1.2-0.8-1.8c-0.8-2.2-3-3.9-5.4-4.1c-2.7-0.2-4.7,1.1-5.9,3.5c-0.5,1.1-0.5,2.3-0.4,3.4c0,1.7-0.1,1.8-1.8,1.2
		c-0.4-0.1-0.7-0.2-1.1-0.3c-1.4-0.4-2.6-0.3-3.7,0.1c-0.5,0.9-1.3,1.5-2.4,1.8c-0.5,0.7-0.9,1.5-1.1,2.5c-0.3,1.4,0.4,2.8,0.4,4.2
		c0,0.9,1,2-0.1,2.6c-1.1,0.5-1.5-0.8-2.2-1.4c-1.7-1.6-3.6-1.4-4.9,0.5c-1.4,1.9-2.1,3.9-1,6.3c0.4,0.9,1.5,2.2-0.5,2.9
		c-0.1,0-0.1,0.5-0.2,0.8c-0.1,1.2,0.4,2.3,1.3,3.1c2.8,2.9,6.4,3.6,10.2,3.1c4.5-0.6,9-0.8,13.6,0c4.1,0.7,8.2,1.2,12.3-0.2
		c2-0.7,4-1.1,6.1-0.7c1.3,0.2,2.6-0.2,3.9-0.4c5.4-0.6,8.5-3.3,9.9-8.2C800.6,280.5,798.7,278.4,795.3,279z"/>
	<path display="inline" fill="#76B944" d="M797.3,291.2c2.3-1.1,3.6-3,3.8-5.5c0.2-2.2-0.6-3-2.8-3.2c-0.1-0.3,0.1-0.6,0.3-0.8
		c0.7-1.4,0.5-2.1-0.8-3c-0.2-0.2-0.4-0.3-0.4-0.6c-0.3-3.1,0.8-6.4,3.7-7.9c2.8-1.5,5.6,0.1,5.9,3.3c0,0.3-0.1,0.7,0.2,0.8
		c0.5,0.1,0.5-0.4,0.6-0.7c0.4-0.8,0.8-1.6,1.6-2.1c1.1-0.8,2.2-0.9,3.4-0.3c1.1,0.6,1.9,1.6,1.9,3c0,0.9-0.2,1.8-0.3,2.7
		c0,0.3-0.1,0.5,0.2,0.6c0.2,0.1,0.4,0,0.6-0.1c1.6-1.1,2.6-0.8,3.5,0.8c1.5,2.5,0.6,5.7-1.9,7c-0.2,0.1-0.4,0.1-0.4,0.4
		c0,0.2,0.2,0.2,0.4,0.3c0.4,0.1,0.8,0.2,1.2,0.4c1.3,0.6,1.6,1.7,0.9,3c-0.9,1.6-2.4,2.4-4.1,2.7c-1.6,0.4-3.2,0.4-4.8-0.4
		c-0.8-0.4-1.7-0.3-2.6-0.1c-1.4,0.3-2.7,0.8-4.1,0.5c-0.5-0.1-1-0.1-1.4-0.4c-1.1-0.8-2.2-0.8-3.3-0.4c-0.3,0.1-0.6,0.1-0.9,0.2
		C797.5,291.5,797.2,291.6,797.3,291.2z"/>
	<path display="inline" fill="#60A344" d="M794.5,291.9c0.1,0.3,0.4,0.3,0.7,0.3c-0.4,0.4-0.9,0.4-1.4,0.2
		C793.9,292,794.3,292,794.5,291.9z"/>
	<path display="inline" fill="#428E42" d="M762.4,270.2c1.7,1.6,2.9-0.1,4.4-1c1.7-1,4.3-0.1,5,1.5c0.2,0.5,0.5,1.2-0.2,1.4
		c-0.6,0.2-0.5-0.5-0.7-0.9c-0.5-1.1-1.5-1.4-2.6-1.4c-1.5,0-2.3,0.9-2.9,2.1c-0.2,0.5,0,1.3-0.7,1.4c-0.8,0.2-0.7-0.7-0.9-1.1
		c-0.5-0.7-1-1.1-1.9-1.1c-1,0-1.4,0.7-1.8,1.4c-0.2,0.4-0.1,1.2-0.8,0.9c-0.6-0.3-0.3-1-0.1-1.5
		C759.8,270.9,760.7,270.2,762.4,270.2z"/>
	<path display="inline" fill="#428E42" d="M754.9,283.7c-0.1,1.1,0.5,1.9,1.4,2.4c1.1,0.6,2.2,0.6,3.3-0.1c0.4-0.3,0.7-0.7,1.1-1
		c0.2-0.2,0.4-0.4,0.7-0.3c0.3,0.1,0.2,0.4,0.3,0.7c0.4,3.1,1.1,3.4,3.8,1.8c0.2-0.1,0.5-0.4,0.7,0c0.2,0.3,0,0.5-0.1,0.8
		c-1,1.7-3.9,1.8-5,0c-0.6-0.9-0.9-0.9-1.8-0.5c-2.2,0.8-4.7-0.5-5.3-2.6c-0.1-0.4-0.3-0.7-0.1-1.1c0.2-0.4,0.1-1.2,0.8-1
		C755.2,282.8,754.9,283.3,754.9,283.7z"/>
	<path display="inline" fill="#438E42" d="M783.8,280.2c-0.9,0.1-1.7,0.4-2.4,1.2c-0.3,0.3-0.6,0.6-1,0.3c-0.3-0.2-0.2-0.6-0.1-0.9
		c0.4-1.1-0.2-1.9-1.1-2.5c-0.9-0.6-1.7-0.3-2.4,0.4c-0.2,0.2-0.5,0.6-0.8,0.2c-0.4-0.4,0-0.7,0.2-1c1.3-1.5,3.8-1.2,4.7,0.7
		c0.5,1,0.9,1.2,2,0.8c2.3-0.8,5.1,1.6,4.8,4c-0.1,0.6-0.3,1.4-1,1.3c-0.7-0.1-0.1-0.8-0.1-1.2C787,281.9,785.6,280.3,783.8,280.2z"
		/>
	<path display="inline" fill="#428E42" d="M805.5,276.6c0.1,0,0.4,0,0.5,0.1c0.8,0.8,1.4,0.4,2.2-0.1c0.7-0.5,1.9,0.1,2.1,1
		c0.1,0.2,0.1,0.4-0.1,0.5c-0.2,0.1-0.3-0.1-0.4-0.2c-0.3-0.5-0.7-0.9-1.2-0.8c-0.6,0.2-1,0.5-1,1.3c0,0.2,0,0.3-0.2,0.4
		c-0.2,0.1-0.3-0.1-0.4-0.3c-0.4-0.8-0.9-1.3-1.8-1.3c-0.8,0-1.4,0.4-1.5,1.3c0,0.2,0,0.5-0.3,0.5c-0.3,0-0.2-0.3-0.2-0.6
		C803.1,277.4,804,276.6,805.5,276.6z"/>
	<path display="inline" fill="#428E42" d="M813.5,284.1c0,0.1-0.1,0.4-0.2,0.5c-1,0.5-0.7,1.3-0.5,2.1c0.2,0.8-0.6,1.8-1.5,1.8
		c-0.2,0-0.4,0-0.5-0.2c0-0.2,0.1-0.3,0.3-0.3c0.6-0.1,1.1-0.4,1.1-1c0-0.6-0.3-1.1-1-1.3c-0.2,0-0.3-0.1-0.3-0.3
		c0-0.3,0.2-0.3,0.4-0.3c0.8-0.1,1.5-0.5,1.7-1.4c0.2-0.8,0-1.5-0.9-1.8c-0.2-0.1-0.5-0.1-0.4-0.4c0.1-0.2,0.4-0.1,0.6-0.1
		C813.4,281.6,813.9,282.7,813.5,284.1z"/>
	<path display="inline" fill="#428E42" d="M790.1,258.2c-0.2,0.1-0.3-0.1-0.4-0.3c-0.4-0.8-0.9-1.3-1.8-1.3"/>
</g>
<g id="l_bush" display="none">
	<path display="inline" fill="#76B944" d="M320,255.3c3.6,1.7,4.7,3.2,5.4,6.8c0.8-0.5,1-1.3,1.5-1.9c2.8-3.7,7.8-3.6,10.3,0.2
		c1.2,1.7,0.7,3.6,0.6,5.5c-0.1,0.7-0.4,1.5-0.1,2.4c0.9-0.5,1.6-1.3,2.6-1.4c1.8-0.2,3.5,0.7,4.5,3c0.6,1.4,1.2,1.8,2.6,1.1
		c0.7-0.3,1.6-0.5,2.4-0.4c-0.6,1.5-2,2.4-2.8,3.8c-0.4,0.7-1,0.2-1.3-0.4c-0.5-1-1.3-1.8-2.2-2.4c-3.4-2.3-8.1-1-9.7,2.8
		c-0.2,0.5-0.3,1.2-0.9,1.5c-0.6,0-0.8-0.5-1.2-0.8c-2.3-2.3-4.9-2.2-6.8,0.5c-0.7,1-1.4,1.3-2.3,0.4c-1.8-1.9-3.9-2.1-6.3-1.4
		c-0.3,0.1-0.7,0.1-0.9-0.3c-1-1.8-1-2.7,0.1-3.9c1.6-1.9,3.4-1.3,5.3-0.4c-0.1-3.1,1.1-4.2,3.8-3.5c-1.8-0.8-2.9-0.5-3.8,1.3
		c-0.4,0.9-0.9,1.5-2,1.3c-1.6-0.3-2.9,0.5-3.8,1.8c-1,1.4-0.3,2.5,0.4,3.6c-0.4,1.2-1.3,2-2.4,2.5c-0.4-0.2-0.6-0.5-0.8-0.8
		c-1.5-1.7-2.7-1.9-4.7-0.9c-1.9,1-1.9,1-3.4-0.7c-1-1.1-2.6-1.5-3.4-2.8c2.9-3.4,5.5-1,8.2,0.4c0.1-0.1,0.2-0.2,0.2-0.3
		c-2-8.2,0.6-13.4,8.3-16.6C318.2,255.3,319.1,255.3,320,255.3z"/>
	<path display="inline" fill="#56A646" d="M312.3,279.2c-0.1-0.9,0.6-1.5,0.7-2.3c0.8-0.8,1.6-1.6,2.3-2.3c-0.1-0.3,0-0.4,0.3-0.3
		c0.8,0.3,1.5-0.2,2.2-0.4c2.2-0.4,3.8,0.7,5.3,2c0.4,0.3,0.6,0.7,1.2,0c3-3.9,5.6-3.9,8.6-0.1c0,0.6,0,1.1,0,1.7
		c-0.1,0.7-0.4,0.8-1,0.4c-0.4-0.4-0.4-1-0.7-1.5c-0.6-1.2-1.4-1.8-2.7-1.8c-1.3,0-2.2,0.5-2.8,1.7c-1.5,2.9-1.6,3-3.7,0.6
		c-2.9-3.1-6.9-1.2-8,1.7c-0.5,1.2-0.6,2.5-0.9,3.7c-0.3,1.5-1,1.7-2.2,0.8c-3.6-2.8-6.7-1.7-8,2.7c-2.6,9.4,5.8,17.2,12.3,17.2
		c0.3,0,0.5,0.1,0.8,0.1c0.6,0.3,1,0.8,1.4,1.3c-3.5,0.4-6.6-0.5-9.5-2.5c-0.6-0.4-1.2-0.8-1.8-1.2c-0.1-0.4-0.3-0.6-0.7-0.7
		c-2.8-2.1-4.2-5.1-4.6-8.5c-0.3-2.6-0.4-5.2,0.8-7.6c1.1-2.3,2.7-4,5.4-4.5c1.7-0.3,3,0.5,4.4,1.1
		C311.9,280.4,311.6,279.5,312.3,279.2z"/>
	<path display="inline" fill="#76B944" d="M375.8,267.9c-6.3,2-9.8,7.2-9.3,13.8c0,0.2,0,0.3,0,0.5c0,0.5,0.2,1-0.3,1.4
		c-0.1,0.1-0.3,0-0.4-0.1c-0.4-0.4-0.1-0.8,0-1.2c0.6-3.4-2.7-5.8-6.2-4.5c-1.6,0.6-1.7,0.4-1.4-1.2c0.5-2.7-1-6.6-5.1-6.3
		c-0.4,0-0.9-0.1-1.3-0.1c1.7,0.1,2.2-0.8,2.8-2.3c1.6-4.4,7.3-5.7,11.5-2.9c0.9,0.6,1.7,1.4,2.4,2.3c0.6,0.7,0.9,0.9,1.8,0.2
		C372.1,265.9,374.2,266.1,375.8,267.9z"/>
	<path display="inline" fill="#438E42" d="M315.7,274.3c-0.1,0.1-0.2,0.2-0.3,0.3c-1.1-0.7-1.6-1.7-1.2-2.9c0.6-1.8,2.2-3.1,3.9-3
		c1.3,0.1,2,0,2.5-1.4c0.7-1.7,2.9-2.1,4.4-1.1c0.3,0.2,0.7,0.5,0.5,0.9c-0.2,0.5-0.7,0.3-1,0.1c-0.9-0.7-1.7-0.7-2.6,0
		c-0.9,0.7-1,1.6-0.6,2.6c0.1,0.3,0.3,0.6-0.1,0.9c-0.5,0.4-0.8-0.1-1.1-0.3c-2.1-1.4-4.1-0.8-5,1.4
		C314.8,272.8,315.7,273.4,315.7,274.3z"/>
	<path display="inline" fill="#76B944" d="M358.9,304.5c-2.1-0.4-4.1,0-6.1,0.7c-4.1,1.3-8.2,0.9-12.3,0.2c-4.6-0.8-9.1-0.6-13.6,0
		c-3.8,0.5-7.4-0.1-10.2-3.1c-0.8-0.9-1.4-1.9-1.3-3.1c0-0.3,0-0.7,0.2-0.8c2-0.7,0.9-2,0.5-2.9c-1.1-2.4-0.3-4.4,1-6.3
		c1.4-1.9,3.2-2.1,4.9-0.5c0.6,0.6,1.1,1.9,2.2,1.4c1.1-0.6,0.1-1.7,0.1-2.6c0-1.4-0.8-2.8-0.4-4.2c0.8-3.5,3.7-5.3,7.2-4.4
		c0.4,0.1,0.7,0.2,1.1,0.3c1.7,0.6,1.8,0.6,1.8-1.2c0-1.2-0.1-2.3,0.4-3.4c1.2-2.4,3.2-3.6,5.9-3.5c2.4,0.1,4.5,1.9,5.4,4.1
		c0.2,0.6,0,1.8,0.8,1.8c0.9,0,0.7-1.2,1.1-1.8c0.5-0.7,0.7-1.5,1.2-2.2c1.4-1.9,3.9-2.5,6-1.5c1.8,0.8,2.8,3,2.3,5.2
		c-0.2,0.8-0.4,1.5-0.6,2.2c-0.1,0.4-0.4,0.7-0.1,1.1c0.4,0.3,0.7,0,1-0.2c1.3-0.7,2.5-1.3,4-1.3c2.4,0.1,3.8,1.8,3.1,4.1
		c-0.3,1.3-0.9,2.5-1.5,3.7c-0.2,0.4-0.6,1-0.1,1.3c0.5,0.3,0.9-0.4,1.1-0.7c0.5-0.7,1-1.3,1.6-1.8c0.8-0.6,1.7-0.8,2.6-0.2
		c0.9,0.7,0.9,1.7,0.5,2.6c-0.4,0.8-0.9,1.5-1.4,2.2c-0.3,0.4-0.5,0.8-0.2,1.2c0.3,0.4,0.7,0.2,1,0.1c3.4-0.6,5.3,1.5,4.4,5
		c-1.3,4.9-4.5,7.6-9.9,8.2C361.5,304.3,360.2,304.7,358.9,304.5z"/>
	<path display="inline" fill="#76B944" d="M367.5,303.9c3.8-1.8,5.9-4.8,6.2-8.9c0.3-3.6-1.1-4.9-4.7-5.2c-0.2-0.6,0.2-0.9,0.4-1.3
		c1.1-2.3,0.9-3.4-1.3-4.8c-0.4-0.3-0.7-0.5-0.7-1c-0.5-5,1.4-10.2,6.2-12.8c4.7-2.4,9.3,0.1,9.8,5.3c0,0.5-0.2,1.2,0.4,1.3
		c0.8,0.2,0.8-0.6,1-1.1c0.7-1.3,1.4-2.5,2.6-3.4c1.8-1.3,3.7-1.5,5.6-0.4c1.9,1,3.1,2.5,3.1,4.9c0,1.4-0.3,2.8-0.5,4.3
		c0,0.4-0.1,0.8,0.3,1c0.4,0.2,0.7,0,1-0.2c2.6-1.7,4.3-1.3,5.9,1.3c2.5,4,1.1,9.1-3.1,11.3c-0.3,0.2-0.7,0.2-0.6,0.6
		c0.1,0.3,0.4,0.3,0.6,0.4c0.7,0.2,1.4,0.4,2,0.7c2.1,1,2.6,2.8,1.4,4.8c-1.5,2.6-4,3.8-6.7,4.4c-2.7,0.6-5.3,0.6-7.9-0.7
		c-1.3-0.6-2.8-0.4-4.2-0.1c-2.2,0.5-4.4,1.3-6.8,0.8c-0.8-0.1-1.7-0.2-2.4-0.7c-1.8-1.2-3.6-1.2-5.5-0.6c-0.5,0.2-1,0.2-1.5,0.3
		C367.9,304.3,367.5,304.5,367.5,303.9z"/>
	<path display="inline" fill="#76B944" d="M316,303.2c-2.3,1-4.3-0.1-6.1-1.1c-5.3-3.1-8.4-7.6-7.9-14c0.3-3.3,1.4-6.1,4.8-6.9
		c1.8-0.5,2.9,0.5,4.1,1.5c0.4,0.3,0.6,1.1,1.3,0.7c0.5-0.2,0.4-0.9,0.4-1.3c0.4-2,0.6-4,2.2-5.6c2.1-2,4.9-2.1,7-0.1
		c0.1,0.1,0.2,0.2,0.2,0.2c2,1.9,2,1.9,3.2-0.5c0.8-1.7,2.2-2.3,4.2-1.8c1.5,0.3,2.4,1.7,2.4,3.7c-4.5-1.3-6.4,0-8.6,3.5
		c-1.1,1.7-0.6,3.5-0.3,5.3c0.1,0.4,0.1,0.7,0.2,1.2c-0.2,0-0.4,0-0.5-0.1c-3.2-2.1-5.2-1.7-7.2,1.6c-1,1.7-1.7,3.5-0.8,5.5
		c0.4,0.8,0.3,1.6-0.1,2.6C313.7,299.7,314.6,301.5,316,303.2z"/>
	<path display="inline" fill="#60A344" d="M367.5,303.9c0.1,0.3,0.4,0.3,0.7,0.3c-0.4,0.4-0.9,0.4-1.4,0.2
		C366.9,304,367.3,304,367.5,303.9z"/>
	<path display="inline" fill="#76B944" d="M311.7,281.6c-1.5-0.7-2.8-2-4.9-1.6c-3.4,0.7-5.5,4.5-5.8,7.6c-0.4,4.9,1.2,9,4.3,12.6
		c-2.1,0.8-4.3,1.5-6.3,2.5c-1.5,0.7-2.7,2.1-4.4,2.4c-1.6,0.3-3.2,0.5-4.7-0.1c-2.2-0.7-4.4-0.8-6.7-1c-4.6-0.4-6.4-5.2-5.6-8.6
		c0.3-1.4,1.5-2,2.9-2.1c0.8-0.1,1.5,0,2.3,0c0.5,0,1,0,1.1-0.5c0.2-0.6-0.4-0.7-0.8-0.9c-0.3-0.1-0.6-0.2-0.9-0.3
		c-2-0.7-2.9-2.2-3.1-4.1c-0.4-3.7,2.7-7.4,6.4-7.7c1.2-0.1,2.5-0.3,3.6,0.1c1.5,0.4,1.9-0.3,2.1-1.4c0.3-1.2,0.5-2.5,1.4-3.5
		c2.5-2.9,6.9-3.1,9.8-0.5c0.9,0.8,1.9,1.7,2.6,2.8c0.4,0.7,0.9,0.8,1.4,0c0.4-0.6,1-1.1,1.6-1.3c2.3-0.9,3.8,0.1,3.9,2.6
		c0,0.3,0,0.7,0,1C311.6,280,312,280.8,311.7,281.6z"/>
	<path display="inline" fill="#4E9643" d="M311.7,281.6c0.1-0.8-0.3-1.6,0.3-2.3c0.1,0,0.2,0,0.3,0
		C311.8,279.9,312.3,280.9,311.7,281.6z"/>
	<path display="inline" fill="#428E42" d="M335.4,282.2c1.7,1.6,2.9-0.1,4.4-1c1.7-1,4.3-0.1,5,1.5c0.2,0.5,0.5,1.2-0.2,1.4
		c-0.6,0.2-0.5-0.5-0.7-0.9c-0.5-1.1-1.5-1.4-2.6-1.4c-1.5,0-2.3,0.9-2.9,2.1c-0.2,0.5,0,1.3-0.7,1.4c-0.8,0.2-0.7-0.7-0.9-1.1
		c-0.5-0.7-1-1.1-1.9-1.1c-1,0-1.4,0.7-1.8,1.4c-0.2,0.4-0.1,1.2-0.8,0.9c-0.6-0.3-0.3-1-0.1-1.5
		C332.8,282.9,333.7,282.2,335.4,282.2z"/>
	<path display="inline" fill="#428E42" d="M327.9,295.7c-0.1,1.1,0.5,1.9,1.4,2.4c1.1,0.6,2.2,0.6,3.3-0.1c0.4-0.3,0.7-0.7,1.1-1
		c0.2-0.2,0.4-0.4,0.7-0.3c0.3,0.1,0.2,0.4,0.3,0.7c0.4,3.1,1.1,3.4,3.8,1.8c0.2-0.1,0.5-0.4,0.7,0c0.2,0.3,0,0.5-0.1,0.8
		c-1,1.7-3.9,1.8-5,0c-0.6-0.9-0.9-0.9-1.8-0.5c-2.2,0.8-4.7-0.5-5.3-2.6c-0.1-0.4-0.3-0.7-0.1-1.1c0.2-0.4,0.1-1.2,0.8-1
		C328.2,294.8,327.9,295.3,327.9,295.7z"/>
	<path display="inline" fill="#438E42" d="M356.9,270.5c-0.9,0.1-1.7,0.4-2.4,1.2c-0.3,0.3-0.6,0.6-1,0.3c-0.3-0.2-0.2-0.6-0.1-0.9
		c0.4-1.1-0.2-1.9-1.1-2.5c-0.9-0.6-1.7-0.3-2.4,0.4c-0.2,0.2-0.5,0.6-0.8,0.2c-0.4-0.4,0-0.7,0.2-1c1.3-1.5,3.8-1.2,4.7,0.7
		c0.5,1,0.9,1.2,2,0.8c2.3-0.8,5.1,1.6,4.8,4c-0.1,0.6-0.3,1.4-1,1.3c-0.7-0.1-0.1-0.8-0.1-1.2C360.1,272.1,358.7,270.6,356.9,270.5
		z"/>
	<path display="inline" fill="#428E42" d="M379.7,280.9c0.1,0,0.7-0.1,0.9,0.2c1.4,1.4,2.6,0.7,3.9-0.2c1.3-0.8,3.4,0.2,3.8,1.6
		c0.1,0.3,0.2,0.7-0.2,0.9c-0.3,0.1-0.5-0.1-0.7-0.4c-0.5-0.9-1.2-1.6-2.2-1.3c-1.1,0.3-1.9,0.9-1.8,2.2c0,0.3-0.1,0.6-0.4,0.7
		c-0.4,0.1-0.6-0.2-0.7-0.5c-0.6-1.3-1.6-2.3-3.2-2.2c-1.5,0.1-2.6,0.6-2.7,2.3c0,0.4,0,0.9-0.6,0.8c-0.5-0.1-0.4-0.6-0.4-1
		C375.4,282.2,377,280.9,379.7,280.9z"/>
	<path display="inline" fill="#428E42" d="M388.3,299.9c-0.5,0.1-1.1,0-1.7-0.4c-0.4-0.3-1.1-0.7-0.8-1.3c0.5-0.8,0.9,0,1.3,0.3
		c0.9,0.6,1.8,0.5,2.6,0c1-0.6,1.6-1.5,1.5-2.7c0-0.5-0.2-1-0.3-1.5c0-0.3-0.1-0.7,0.2-0.9c0.3-0.2,0.5,0.1,0.7,0.3
		c0.9,0.7,1.8,0.8,2.8,0.2c0.9-0.6,1.1-1.5,0.7-2.5c-0.1-0.3-0.1-0.7,0.3-0.8c0.5-0.2,0.6,0.4,0.7,0.7c0.7,1.9-0.5,3.9-2.6,4
		c-1.1,0-1.4,0.3-1.5,1.4C392.2,298.5,390.4,299.9,388.3,299.9z"/>
	<path display="inline" fill="#428E42" d="M292.3,290.2c0.1,0,0.3,0,0.5-0.1c0.4-0.1,0.8-0.4,1.1,0c0.3,0.5-0.1,0.8-0.4,1.1
		c-1.4,2-1,4,1.1,4.9c0.6,0.3,1.1,0.2,1.7-0.1c0.3-0.2,0.8-0.4,1,0.1c0.2,0.5-0.3,0.6-0.6,0.8c-1.9,1.2-4.7-0.6-4.9-3.2
		c0-0.4-0.1-0.9,0.1-1.3c0.4-0.9,0-1.2-0.8-1.5c-1.9-0.9-2.5-2.6-1.6-4.4c0.2-0.5,0.6-1.2,1.2-0.8c0.6,0.4,0,0.8-0.2,1.3
		C289.6,288.6,290.5,290.2,292.3,290.2z"/>
</g>
</svg>
